<svg xmlns="http://www.w3.org/2000/svg" width="682.667" height="682.667" version="1.0" viewBox="0 0 512 512"><path d="M57 2c-1.1 1.1-2 2.6-2 3.3 0 1.6 4.1 7.5 10.9 15.8 2.5 3 6 7.3 7.7 9.5 18.5 23.2 32 40.2 36.9 46.4 3.3 4.1 6.9 8.6 8 10.1 1.1 1.5 5.6 7.1 10 12.5 12.3 15.3 17.5 22.2 17.5 23.5 0 2.9-8.6 15.1-12 16.9-1 .5-2.7 1.1-3.7 1.3-1 .1-2.4.6-3.1 1-2.5 1.7-13.8.7-22.2-1.7-10.7-3.2-14-3.3-16.7-.4-8.1 8.7 5 31.7 22.8 40.1 7.6 3.6 10.5 4.4 19.9 5.4 3 .3 5.6.6 5.8.8.1.1-1.2 1.8-3 3.7-1.8 1.9-8.2 8.8-14.3 15.4-6 6.5-12.3 13.2-13.8 14.9-8.7 9.3-23.6 25.2-26.2 28-6.8 7.4-24.2 26.1-27 29-1.6 1.8-7.3 7.9-12.5 13.5-5.2 5.7-11.1 12-13 14-12.2 12.9-16.6 20.4-18.5 31.7-3.4 20.2 7.6 41.5 25.8 50.2 11.3 5.4 21.1 6.1 37.2 2.5 6.1-1.3 17.3-3.8 25-5.5 15.6-3.4 14.4-3.1 24-5.4 3.9-.9 7.8-1.8 8.8-2.1 1-.2 2.6-.5 3.5-.8.9-.3 2.8-.7 4.2-1 2.4-.4 26-5.7 40-9 6.6-1.5 11.3-2.5 14-3 .8-.1 2.6-.5 4-.9 11.8-3 20.5-4.7 21.6-4.3.8.3 1.4.2 1.4-.3s1.3-1.1 2.9-1.4c1.6-.3 4.2-.9 5.7-1.3 2.6-.7 2.7-.6 1.4.8-.8.8-2.8 3.2-4.5 5.3-1.6 2.1-3.4 4.3-4 4.9-4.9 5.4-18.7 26.1-25.9 38.9-15.5 27.3-28.2 60.3-34.1 88.4-3.1 14.6-2.9 17.8 1.2 18.5 1.6.3 71 .5 154.3.4 143-.1 151.9-.2 159.5-1.9 17.8-4.1 26.3-11.1 30.3-25 1-3.5 1.1-221.5.1-228.5-1.4-9.8-1.7-11.3-4-18.2-5.4-16.6-16.4-29.8-30-36.2-6.4-3.1-12.4-4.9-15.3-4.7-.4 0-3.6-5.6-7-12.4-14.1-28-32.7-46.5-54.6-54.2-2.2-.8-4.2-1.3-4.4-1.2-.2.1-3.2-3.6-6.6-8.3-8.1-11-27.3-30-37.6-37.2C329.9 73 309.9 63.6 295 60.2c-11.6-2.7-14-3.2-21-3.8-9.1-.9-28.3-.9-36.3.1-4.5.5-6.3.3-7.5-.8-.9-.8-7.1-5.1-13.6-9.6-12.7-8.6-16.7-9.9-19.9-6.3-2.1 2.3-2.2 9.3-.2 18.2.8 3.6 1.4 6.9 1.5 7.3 0 .4-2.6 2-5.7 3.4-3.2 1.4-8.7 4.5-12.3 6.8l-6.5 4.1-4.5-3.3c-2.5-1.9-7.2-5.2-10.5-7.5s-6.4-4.6-7-5.1c-2.3-2-65.5-47.1-70.7-50.5-3.2-2-5.7-4.3-5.8-5 0-.6-.9-1.2-1.9-1.2-1.1 0-2.3-.5-2.6-1-1-1.7-8.3-6-10-6-.8 0-2.4.9-3.5 2z"/></svg>