<?xml version="1.0" standalone="no"?>
<!DOCTYPE svg PUBLIC "-//W3C//DTD SVG 20010904//EN"
 "http://www.w3.org/TR/2001/REC-SVG-20010904/DTD/svg10.dtd">
<svg version="1.0" xmlns="http://www.w3.org/2000/svg"
 width="512.000000pt" height="512.000000pt" viewBox="0 0 512.000000 512.000000"
 preserveAspectRatio="xMidYMid meet">
<metadata>
Created by potrace 1.14, written by Peter Selinger 2001-2017
</metadata>
<g transform="translate(0.000000,512.000000) scale(0.100000,-0.100000)"
fill="#000000" stroke="none">
<path d="M570 5100 c-11 -11 -20 -26 -20 -33 0 -16 41 -75 109 -158 25 -30 60
-73 77 -95 185 -232 320 -402 369 -464 33 -41 69 -86 80 -101 11 -15 56 -71
100 -125 123 -153 175 -222 175 -235 0 -29 -86 -151 -120 -169 -10 -5 -27 -11
-37 -13 -10 -1 -24 -6 -31 -10 -25 -17 -138 -7 -222 17 -107 32 -140 33 -167
4 -81 -87 50 -317 228 -401 76 -36 105 -44 199 -54 30 -3 56 -6 58 -8 1 -1
-12 -18 -30 -37 -18 -19 -82 -88 -143 -154 -60 -65 -123 -132 -138 -149 -87
-93 -236 -252 -262 -280 -68 -74 -242 -261 -270 -290 -16 -18 -73 -79 -125
-135 -52 -57 -111 -120 -130 -140 -122 -129 -166 -204 -185 -317 -34 -202 76
-415 258 -502 113 -54 211 -61 372 -25 61 13 173 38 250 55 156 34 144 31 240
54 39 9 78 18 88 21 10 2 26 5 35 8 9 3 28 7 42 10 24 4 260 57 400 90 66 15
113 25 140 30 8 1 26 5 40 9 118 30 205 47 216 43 8 -3 14 -2 14 3 0 5 13 11
29 14 16 3 42 9 57 13 26 7 27 6 14 -8 -8 -8 -28 -32 -45 -53 -16 -21 -34 -43
-40 -49 -49 -54 -187 -261 -259 -389 -155 -273 -282 -603 -341 -884 -31 -146
-29 -178 12 -185 16 -3 710 -5 1543 -4 1430 1 1519 2 1595 19 178 41 263 111
303 250 10 35 11 2215 1 2285 -14 98 -17 113 -40 182 -54 166 -164 298 -300
362 -64 31 -124 49 -153 47 -4 0 -36 56 -70 124 -141 280 -327 465 -546 542
-22 8 -42 13 -44 12 -2 -1 -32 36 -66 83 -81 110 -273 300 -376 372 -155 108
-355 202 -504 236 -116 27 -140 32 -210 38 -91 9 -283 9 -363 -1 -45 -5 -63
-3 -75 8 -9 8 -71 51 -136 96 -127 86 -167 99 -199 63 -21 -23 -22 -93 -2
-182 8 -36 14 -69 15 -73 0 -4 -26 -20 -57 -34 -32 -14 -87 -45 -123 -68 l-65
-41 -45 33 c-25 19 -72 52 -105 75 -33 23 -64 46 -70 51 -23 20 -655 471 -707
505 -32 20 -57 43 -58 50 0 6 -9 12 -19 12 -11 0 -23 5 -26 10 -10 17 -83 60
-100 60 -8 0 -24 -9 -35 -20z"/>
</g>
</svg>
