<svg xmlns="http://www.w3.org/2000/svg" fill="none" viewBox="0 0 276 256"><path fill="#2ECC40" d="M78 16h20v50H78z"/><path fill="#FF4136" d="M78 166h20v90H78z"/><path fill="#737373" d="M78 116h20v50H78z"/><path fill="#FF9145" d="M78 66h20v50H78z"/><path fill="#303030" d="M128 186h20v20h-20v-20z"/><path fill="#737373" d="M178 116h20v60h-20z"/><path fill="#FF9145" d="M178 56h20v60h-20z"/><path fill="#FF9145" d="M178 66H98v50h80V66z" opacity=".5"/><path fill="#737373" d="M178 116H98v30h80v-30z" opacity=".5"/><path fill="url(#a)" d="M148 186c0-35-30-40-50-40v20c10 0 30 5 30 20h20z" opacity=".5"/><path fill="#fff" d="M78.396 7.8c0-.48.088-.896.264-1.248.176-.352.476-.656.9-.912l2.976-1.776a.849.849 0 00.336-.336.823.823 0 00.132-.432v-.384a.66.66 0 00-.252-.54c-.16-.136-.372-.204-.636-.204h-1.104c-.312 0-.556.116-.732.348-.176.224-.264.544-.264.96H78.36c0-.872.232-1.552.696-2.04.464-.488 1.108-.732 1.932-.732h1.128c.504 0 .948.092 1.332.276.384.184.68.444.888.78.216.336.324.72.324 1.152v.384c0 .432-.092.804-.276 1.116-.176.304-.456.568-.84.792l-2.892 1.68a1.5 1.5 0 00-.444.372.852.852 0 00-.144.504h4.644V9h-6.312V7.8zm10.032 1.296c-.56 0-1.056-.12-1.488-.36a2.586 2.586 0 01-1.008-1.044c-.24-.448-.36-.964-.36-1.548V3.456c0-.584.116-1.1.348-1.548.24-.448.576-.792 1.008-1.032.432-.248.932-.372 1.5-.372H89.7c.552 0 1.04.124 1.464.372.424.24.752.584.984 1.032.24.448.36.964.36 1.548v2.688c0 .584-.116 1.1-.348 1.548a2.53 2.53 0 01-.984 1.044c-.424.24-.916.36-1.476.36h-1.272zm1.248-1.464c.352 0 .632-.132.84-.396.216-.272.324-.628.324-1.068V3.432c0-.44-.108-.792-.324-1.056a1.003 1.003 0 00-.84-.408h-1.224c-.368 0-.664.136-.888.408-.224.264-.336.616-.336 1.056v2.736c0 .44.112.796.336 1.068.224.264.52.396.888.396h1.224zm3.802.168c0-.48.088-.896.264-1.248.176-.352.476-.656.9-.912l2.976-1.776a.849.849 0 00.336-.336.823.823 0 00.132-.432v-.384a.66.66 0 00-.252-.54c-.16-.136-.372-.204-.636-.204h-1.104c-.312 0-.556.116-.732.348-.176.224-.264.544-.264.96h-1.656c0-.872.232-1.552.696-2.04.464-.488 1.108-.732 1.932-.732h1.128c.504 0 .948.092 1.332.276.384.184.68.444.888.78.216.336.324.72.324 1.152v.384c0 .432-.092.804-.276 1.116-.176.304-.456.568-.84.792l-2.892 1.68a1.5 1.5 0 00-.444.372.852.852 0 00-.144.504h4.644V9h-6.312V7.8zm12.588-3.132c.328.192.58.428.756.708.184.28.276.572.276.876v.48c0 .464-.116.876-.348 1.236-.232.36-.56.64-.984.84-.416.192-.9.288-1.452.288h-1.164c-.856 0-1.528-.244-2.016-.732-.48-.488-.72-1.168-.72-2.04h1.632c0 .416.096.74.288.972.192.224.464.336.816.336h1.164c.336 0 .608-.08.816-.24a.808.808 0 00.312-.66v-.48a.702.702 0 00-.324-.6c-.216-.152-.496-.228-.84-.228h-1.536v-1.44h1.536c.304 0 .548-.072.732-.216a.728.728 0 00.276-.588V2.7c0-.224-.088-.4-.264-.528-.176-.136-.404-.204-.684-.204h-1.164c-.328 0-.584.116-.768.348-.176.224-.264.544-.264.96h-1.668c0-.872.236-1.552.708-2.04.48-.488 1.144-.732 1.992-.732h1.164c.512 0 .964.092 1.356.276.4.184.708.444.924.78.216.328.324.708.324 1.14v.48c0 .296-.076.572-.228.828a2.036 2.036 0 01-.648.66zM29.238 37.68c-.145.56-.444.932-.9 1.116.215.152.38.352.491.6.113.24.168.516.168.828V45h-.863v-.684c-.04-.84-.248-1.492-.625-1.956-.375-.472-.875-.708-1.5-.708-.4 0-.712.104-.936.312-.215.208-.323.496-.323.864v.048c.111-.048.247-.072.407-.072.352 0 .633.104.84.312.209.208.313.488.313.84s-.112.636-.336.852c-.216.208-.509.312-.877.312-.367 0-.664-.104-.888-.312-.215-.216-.323-.5-.323-.852v-.984c0-.656.188-1.168.564-1.536.376-.368.896-.552 1.56-.552.463 0 .88.1 1.247.3.377.2.665.48.864.84h.013v-1.8c0-.352-.096-.632-.288-.84-.184-.208-.433-.312-.744-.312H25.77c-.392 0-.709.116-.948.348-.232.232-.348.536-.348.912h-.84c0-.608.195-1.096.587-1.464.392-.376.909-.564 1.549-.564h1.451c.345 0 .596-.044.756-.132.168-.088.296-.252.384-.492l.037-.096h.864l-.024.096zm-3.564 6.276a.568.568 0 00-.157-.42.568.568 0 00-.42-.156.568.568 0 00-.42.156.568.568 0 00-.155.42c0 .176.052.316.155.42a.568.568 0 00.42.156.568.568 0 00.42-.156.568.568 0 00.157-.42zm2.759-6.66c-.392 0-.708-.116-.948-.348-.24-.232-.36-.54-.36-.924s.12-.692.36-.924c.24-.232.556-.348.948-.348.392 0 .708.116.948.348.24.232.36.54.36.924s-.12.692-.36.924c-.24.232-.556.348-.948.348zm0-.612c.2 0 .364-.06.492-.18.12-.12.18-.28.18-.48 0-.2-.06-.36-.18-.48a.69.69 0 00-.492-.18c-.2 0-.36.06-.48.18a.627.627 0 00-.192.48c0 .2.064.36.192.48.12.12.28.18.48.18zm5.904 3.54c0-.352-.096-.632-.288-.84-.184-.208-.432-.312-.744-.312h-.9c-.352 0-.636.132-.852.396-.216.256-.324.596-.324 1.02h-.84c0-.656.184-1.184.552-1.584.368-.4.856-.6 1.464-.6h.9c.568 0 1.024.176 1.368.528.352.352.528.816.528 1.392V45h-.864v-4.776zm4.051 2.58c.352 0 .632.104.84.312.208.208.312.488.312.84s-.112.636-.336.852c-.216.208-.508.312-.876.312s-.664-.104-.888-.312c-.216-.216-.324-.5-.324-.852V38.4h.864v4.476c.112-.048.248-.072.408-.072zm-.06 1.728a.568.568 0 00.42-.156.568.568 0 00.156-.42.568.568 0 00-.156-.42.568.568 0 00-.42-.156.568.568 0 00-.42.156.568.568 0 00-.156.42c0 .176.052.316.156.42a.568.568 0 00.42.156zm3.523-5.484c-.328 0-.592.108-.792.324-.192.216-.3.516-.324.9.672.128 1.308.3 1.908.516a8.828 8.828 0 011.608.72v2.448c0 .352-.112.636-.336.852-.216.208-.508.312-.876.312s-.664-.104-.888-.312c-.216-.216-.324-.5-.324-.852 0-.344.104-.62.312-.828.216-.216.5-.324.852-.324.16 0 .292.024.396.072v-.984c-.744-.432-1.916-.792-3.516-1.08 0-.784.176-1.4.528-1.848.352-.456.84-.684 1.464-.684.192 0 .368.024.528.072.168.04.376.108.624.204.208.08.376.14.504.18.128.04.264.06.408.06.192 0 .376-.032.552-.096a1.37 1.37 0 00.456-.3v.792c-.112.112-.252.2-.42.264-.168.056-.34.084-.516.084-.168 0-.328-.02-.48-.06-.152-.04-.336-.1-.552-.18a6.132 6.132 0 00-.6-.192 2.031 2.031 0 00-.516-.06zm1.188 5.484a.568.568 0 00.42-.156.568.568 0 00.156-.42.568.568 0 00-.156-.42.568.568 0 00-.42-.156.568.568 0 00-.42.156.568.568 0 00-.156.42c0 .176.052.316.156.42a.568.568 0 00.42.156zm.84-9.132c.297 0 .533.088.709.264a.925.925 0 01.264.684c0 .296-.1.532-.3.708-.208.176-.48.264-.816.264-.376 0-.712-.068-1.008-.204a1.619 1.619 0 01-.684-.6l-.396.756h-.216c-.408 0-.732-.128-.972-.384-.248-.256-.372-.596-.372-1.02 0-.496.164-.872.492-1.128.32-.256.8-.384 1.44-.384h1.284c.248 0 .436-.076.564-.228.128-.16.192-.388.192-.684h.696c0 .496-.116.876-.348 1.14-.24.256-.588.384-1.044.384H42.02c-.408 0-.708.076-.9.228-.192.144-.288.368-.288.672 0 .224.048.408.144.552a.448.448 0 00.384.204h.048l.528-1.008h.336c.136.568.384.904.744 1.008a.773.773 0 01-.06-.3c0-.28.084-.504.252-.672.168-.168.392-.252.672-.252zm0 1.392c.129 0 .237-.04.325-.12a.464.464 0 00.12-.324.438.438 0 00-.12-.324.464.464 0 00-.324-.12.422.422 0 00-.312.12.438.438 0 00-.12.324c0 .136.04.244.12.324.08.08.184.12.312.12zm5.64 1.512c.567 0 1.023.176 1.367.528.352.352.528.816.528 1.392v3.12c0 .544-.136.956-.408 1.236-.272.28-.664.42-1.176.42h-.9c-.232 0-.412-.064-.54-.192-.128-.128-.192-.304-.192-.528v-1.248a.947.947 0 01-.396.072c-.352 0-.636-.104-.852-.312-.208-.216-.312-.496-.312-.84 0-.352.108-.632.324-.84.224-.216.52-.324.888-.324s.66.108.876.324c.224.208.336.488.336.84v2.304h.72c.264 0 .456-.072.576-.216.128-.152.192-.384.192-.696v-3.12c0-.352-.096-.632-.288-.84-.184-.208-.432-.312-.744-.312H48.03c-.384 0-.692.128-.924.384-.232.248-.348.576-.348.984h-.864c0-.64.196-1.156.588-1.548.392-.392.908-.588 1.548-.588h1.488zm-1.669 4.224a.568.568 0 00.42-.156.568.568 0 00.156-.42.568.568 0 00-.156-.42.568.568 0 00-.42-.156.568.568 0 00-.42.156.568.568 0 00-.156.42c0 .176.052.316.156.42a.568.568 0 00.42.156zm9.946 4.896a9.614 9.614 0 01-1.236-2.532 9.438 9.438 0 01-.396-2.772v-.24c0-1.016.132-1.952.396-2.808a8.526 8.526 0 011.236-2.472h.936c-.584.832-1.016 1.676-1.296 2.532a9.024 9.024 0 00-.408 2.748v.24c0 .936.136 1.832.408 2.688.28.856.712 1.728 1.296 2.616h-.936zm4.304-2.328c-.68 0-1.228-.204-1.644-.612-.416-.416-.624-.96-.624-1.632h.864c0 .44.128.792.384 1.056s.596.396 1.02.396h1.152c.464 0 .836-.136 1.116-.408.288-.28.432-.648.432-1.104v-.744c0-.424-.148-.764-.444-1.02-.288-.256-.668-.384-1.14-.384h-3.084V36.6h5.244v.792H61.02v2.46h2.196c.744 0 1.34.2 1.788.6.456.4.684.932.684 1.596v.744c0 .456-.104.86-.312 1.212-.2.344-.484.612-.852.804-.368.192-.792.288-1.272.288H62.1zm4.664 2.328c.584-.88 1.012-1.748 1.284-2.604a8.63 8.63 0 00.42-2.7v-.24c0-.984-.14-1.904-.42-2.76-.272-.856-.7-1.696-1.284-2.52h.936c.56.784.972 1.608 1.236 2.472.264.856.396 1.792.396 2.808v.24c0 .984-.132 1.908-.396 2.772a9.614 9.614 0 01-1.236 2.532h-.936zM13.338 91.772c0-.584-.32-.936-.96-1.056.056-.416.2-.808.432-1.176.232-.368.524-.664.876-.888a2.09 2.09 0 011.152-.348h1.416c.568 0 1.028.176 1.38.528.352.344.528.8.528 1.368V95h-.864v-4.8c0-.336-.108-.608-.324-.816-.208-.208-.484-.312-.828-.312h-1.308c-.336 0-.644.12-.924.36-.272.24-.476.556-.612.948.28.136.5.328.66.576.16.248.24.52.24.816V95h-.864v-3.228zm4.138-4.476c-.392 0-.708-.116-.948-.348-.24-.232-.36-.54-.36-.924s.12-.692.36-.924c.24-.232.556-.348.948-.348.392 0 .708.116.948.348.24.232.36.54.36.924s-.12.692-.36.924c-.24.232-.556.348-.948.348zm0-.612c.2 0 .364-.06.492-.18.12-.12.18-.28.18-.48 0-.2-.06-.36-.18-.48a.69.69 0 00-.492-.18c-.2 0-.36.06-.48.18a.627.627 0 00-.192.48c0 .2.064.36.192.48.12.12.28.18.48.18zm6.021 3.54c0-.352-.096-.632-.288-.84-.184-.208-.432-.312-.744-.312h-.9c-.352 0-.636.132-.852.396-.216.256-.324.596-.324 1.02h-.84c0-.656.184-1.184.552-1.584.368-.4.856-.6 1.464-.6h.9c.568 0 1.024.176 1.368.528.352.352.528.816.528 1.392V95h-.864v-4.776zm5.983-1.92c.568 0 1.024.176 1.368.528.352.352.528.816.528 1.392V95h-.864v-.684c-.04-.84-.248-1.492-.624-1.956-.376-.472-.876-.708-1.5-.708-.4 0-.712.104-.936.312-.216.208-.324.496-.324.864v.048c.112-.048.248-.072.408-.072.352 0 .632.104.84.312.208.208.312.488.312.84s-.112.636-.336.852c-.216.208-.508.312-.876.312s-.664-.104-.888-.312c-.216-.216-.324-.5-.324-.852v-.984c0-.656.188-1.168.564-1.536.376-.368.896-.552 1.56-.552.464 0 .88.1 1.248.3.376.2.664.48.864.84h.012v-1.8c0-.352-.096-.632-.288-.84-.184-.208-.432-.312-.744-.312h-1.332c-.392 0-.708.116-.948.348-.232.232-.348.536-.348.912h-.84c0-.608.196-1.096.588-1.464.392-.376.908-.564 1.548-.564h1.332zm-1.428 5.652a.568.568 0 00-.156-.42.568.568 0 00-.42-.156.568.568 0 00-.42.156.568.568 0 00-.156.42c0 .176.052.316.156.42a.568.568 0 00.42.156.568.568 0 00.42-.156.568.568 0 00.156-.42zm2.21-6.636c-.735 0-1.315-.128-1.74-.384-.423-.264-.635-.628-.635-1.092 0-.328.108-.592.324-.792.208-.208.484-.312.828-.312.352 0 .632.096.84.288.208.192.312.456.312.792a.86.86 0 01-.12.444.834.834 0 01-.312.312l.012.012c.16.032.348.048.564.048.544 0 .972-.16 1.284-.48.312-.328.476-.776.492-1.344h.804c-.024.784-.268 1.4-.732 1.848-.472.44-1.112.66-1.92.66zm-1.223-.924a.578.578 0 00.408-.144.578.578 0 00.144-.408c0-.168-.048-.3-.144-.396a.552.552 0 00-.408-.156c-.168 0-.3.052-.396.156a.512.512 0 00-.156.396c0 .168.052.304.156.408a.535.535 0 00.396.144zm7.173 1.884c.368 0 .66.108.876.324.224.208.336.488.336.84v4.14c0 .448-.116.796-.348 1.044-.232.248-.556.372-.972.372h-.516a.777.777 0 01-.42-.12.905.905 0 01-.312-.336l-2.136-3.828h.936l1.98 3.54h.396c.168 0 .296-.056.384-.168.096-.12.144-.288.144-.504v-3.06a.947.947 0 01-.396.072c-.352 0-.636-.104-.852-.312-.208-.216-.312-.496-.312-.84 0-.352.108-.632.324-.84.224-.216.52-.324.888-.324zm0 1.74a.568.568 0 00.42-.156.568.568 0 00.156-.42.568.568 0 00-.156-.42.568.568 0 00-.42-.156.568.568 0 00-.42.156.568.568 0 00-.156.42c0 .176.052.316.156.42a.568.568 0 00.42.156zm7.523-1.716c.464 0 .824.148 1.08.444.264.296.396.704.396 1.224V95h-.864v-5.028c0-.272-.056-.484-.168-.636a.5.5 0 00-.444-.24h-.048L41.299 95h-.996v-4.476a1 1 0 01-.396.072c-.352 0-.636-.104-.852-.312-.208-.216-.312-.496-.312-.84 0-.352.108-.632.324-.84.224-.216.52-.324.888-.324s.66.108.876.324c.224.208.336.488.336.84v4.08h.012l2.052-5.22h.504zm-3.78 1.716a.568.568 0 00.42-.156.568.568 0 00.156-.42.568.568 0 00-.156-.42.568.568 0 00-.42-.156.568.568 0 00-.42.156.568.568 0 00-.156.42c0 .176.052.316.156.42a.568.568 0 00.42.156zm4.697-2.724c-.392 0-.708-.116-.948-.348-.24-.232-.36-.54-.36-.924s.12-.692.36-.924c.24-.232.556-.348.948-.348.392 0 .708.116.948.348.24.232.36.54.36.924s-.12.692-.36.924c-.24.232-.556.348-.948.348zm0-.612c.2 0 .364-.06.492-.18.12-.12.18-.28.18-.48 0-.2-.06-.36-.18-.48a.69.69 0 00-.492-.18c-.2 0-.36.06-.48.18a.627.627 0 00-.192.48c0 .2.064.36.192.48.12.12.28.18.48.18zm5.904 3.54c0-.352-.096-.632-.288-.84-.184-.208-.432-.312-.744-.312h-.9c-.352 0-.636.132-.852.396-.216.256-.324.596-.324 1.02h-.84c0-.656.184-1.184.552-1.584.368-.4.856-.6 1.464-.6h.9c.568 0 1.024.176 1.368.528.352.352.528.816.528 1.392V95h-.864v-4.776zm7.24 7.2a9.614 9.614 0 01-1.236-2.532 9.438 9.438 0 01-.396-2.772v-.24c0-1.016.132-1.952.396-2.808a8.526 8.526 0 011.236-2.472h.936c-.584.832-1.016 1.676-1.296 2.532a9.024 9.024 0 00-.408 2.748v.24c0 .936.136 1.832.408 2.688.28.856.712 1.728 1.296 2.616h-.936zm4.304-2.328c-.68 0-1.228-.204-1.644-.612-.416-.416-.624-.96-.624-1.632h.864c0 .44.128.792.384 1.056s.596.396 1.02.396h1.152c.464 0 .836-.136 1.116-.408.288-.28.432-.648.432-1.104v-.744c0-.424-.148-.764-.444-1.02-.288-.256-.668-.384-1.14-.384h-3.084V86.6h5.244v.792H61.02v2.46h2.196c.744 0 1.34.2 1.788.6.456.4.684.932.684 1.596v.744c0 .456-.104.86-.312 1.212-.2.344-.484.612-.852.804-.368.192-.792.288-1.272.288H62.1zm4.664 2.328c.584-.88 1.012-1.748 1.284-2.604a8.63 8.63 0 00.42-2.7v-.24c0-.984-.14-1.904-.42-2.76-.272-.856-.7-1.696-1.284-2.52h.936c.56.784.972 1.608 1.236 2.472.264.856.396 1.792.396 2.808v.24c0 .984-.132 1.908-.396 2.772a9.614 9.614 0 01-1.236 2.532h-.936zM5.961 138.4v4.944c0 .512-.132.916-.396 1.212-.264.296-.652.444-1.164.444H1.437c-.224 0-.4-.064-.528-.192s-.192-.304-.192-.528v-.732c0-.376.076-.7.228-.972.16-.28.392-.496.696-.648v-.012c-.36-.136-.624-.324-.792-.564-.168-.248-.252-.572-.252-.972 0-.632.152-1.14.456-1.524a1.49 1.49 0 011.212-.576c.368 0 .664.108.888.324.224.208.336.488.336.84 0 .344-.108.624-.324.84-.208.208-.488.312-.84.312-.2 0-.384-.044-.552-.132a.925.925 0 01-.372-.372 1.28 1.28 0 00-.024.288c0 .408.116.704.348.888.232.184.6.276 1.104.276h.504v.744H2.83c-.832 0-1.248.42-1.248 1.26v.684H4.27c.296 0 .508-.068.636-.204.128-.136.192-.364.192-.684V138.4h.864zm-3.696.468a.568.568 0 00-.42.156.568.568 0 00-.156.42c0 .176.052.316.156.42a.568.568 0 00.42.156.568.568 0 00.42-.156.545.545 0 00.168-.42.545.545 0 00-.168-.42.568.568 0 00-.42-.156zm2.697-1.548c-.736 0-1.316-.128-1.74-.384-.424-.264-.636-.628-.636-1.092 0-.328.108-.592.324-.792.208-.208.484-.312.828-.312.352 0 .632.096.84.288.208.192.312.456.312.792a.86.86 0 01-.12.444.834.834 0 01-.312.312l.012.012c.16.032.348.048.564.048.544 0 .972-.16 1.284-.48.312-.328.476-.776.492-1.344h.804c-.024.784-.268 1.4-.732 1.848-.472.44-1.112.66-1.92.66zm-1.224-.924a.578.578 0 00.408-.144.578.578 0 00.144-.408c0-.168-.048-.3-.144-.396a.552.552 0 00-.408-.156c-.168 0-.3.052-.396.156a.512.512 0 00-.156.396c0 .168.052.304.156.408a.535.535 0 00.396.144zm7.056 1.884c.368 0 .66.108.876.324.224.208.336.488.336.84v4.14c0 .448-.116.796-.348 1.044-.232.248-.556.372-.972.372h-.516a.777.777 0 01-.42-.12.905.905 0 01-.312-.336l-2.136-3.828h.936l1.98 3.54h.396c.168 0 .296-.056.384-.168.096-.12.144-.288.144-.504v-3.06a.947.947 0 01-.396.072c-.352 0-.636-.104-.852-.312-.208-.216-.312-.496-.312-.84 0-.352.108-.632.324-.84.224-.216.52-.324.888-.324zm0 1.74a.568.568 0 00.42-.156.568.568 0 00.156-.42.568.568 0 00-.156-.42.568.568 0 00-.42-.156.568.568 0 00-.42.156.568.568 0 00-.156.42c0 .176.052.316.156.42a.568.568 0 00.42.156zm5.843 2.784c.352 0 .632.104.84.312.208.208.312.488.312.84s-.112.636-.336.852c-.216.208-.508.312-.876.312s-.664-.104-.888-.312c-.216-.216-.324-.5-.324-.852v-9.324l-1.452 1.968h-.12a.29.29 0 01-.192-.06.865.865 0 01-.132-.192l-1.488-2.58h.816l1.032 1.872 1.416-1.944h.12c.296 0 .512.068.648.204.144.128.216.332.216.612v8.364c.112-.048.248-.072.408-.072zm-.06 1.728a.568.568 0 00.42-.156.568.568 0 00.156-.42.568.568 0 00-.156-.42.568.568 0 00-.42-.156.568.568 0 00-.42.156.568.568 0 00-.156.42c0 .176.052.316.156.42a.568.568 0 00.42.156zm8.107-6.132v6.6h-.84a4.768 4.768 0 00-1.224-1.212c-.488-.344-.972-.564-1.451-.66v1.74c-.113.08-.26.14-.445.18a2.372 2.372 0 01-.6.072c-.391 0-.711-.116-.96-.348-.24-.24-.36-.552-.36-.936 0-.448.137-.8.409-1.056.28-.264.643-.396 1.091-.396v-1.86a.947.947 0 01-.395.072c-.352 0-.636-.104-.852-.312-.208-.216-.313-.496-.313-.84 0-.352.108-.632.325-.84.224-.216.52-.324.887-.324.369 0 .66.108.877.324.224.208.336.488.336.84v2.964c.471.088.951.272 1.44.552.487.28.891.6 1.211.96v-5.52h.864zm-4.728 1.62a.568.568 0 00.42-.156.568.568 0 00.156-.42.568.568 0 00-.155-.42.568.568 0 00-.42-.156.568.568 0 00-.42.156.568.568 0 00-.156.42c0 .176.052.316.155.42a.568.568 0 00.42.156zm.42 3.036h-.096c-.248 0-.44.072-.576.216-.136.136-.204.324-.204.564 0 .208.052.372.157.492a.6.6 0 00.444.168c.143 0 .236-.02.276-.06v-1.38zm3.468-8.172h.84v2.388h-.84v-2.388zm5.473 7.92c.352 0 .631.104.84.312.207.208.311.488.311.84s-.111.636-.335.852c-.216.208-.508.312-.877.312-.367 0-.663-.104-.887-.312-.216-.216-.325-.5-.325-.852v-9.324l-1.451 1.968h-.12a.29.29 0 01-.192-.06.865.865 0 01-.133-.192l-1.488-2.58h.817l1.032 1.872 1.415-1.944h.12c.296 0 .512.068.648.204.145.128.216.332.216.612v8.364c.112-.048.248-.072.409-.072zm-.06 1.728a.568.568 0 00.42-.156.568.568 0 00.155-.42.568.568 0 00-.155-.42.568.568 0 00-.42-.156.568.568 0 00-.42.156.568.568 0 00-.157.42c0 .176.053.316.157.42a.568.568 0 00.42.156zm6.007-6.228c.64 0 1.16.2 1.56.6.4.4.6.928.6 1.584V145h-.864v-4.512c0-.424-.12-.764-.36-1.02-.24-.264-.552-.396-.936-.396h-1.272c-.4 0-.724.136-.972.408-.248.264-.372.616-.372 1.056v3.732h.204c.456 0 .86-.116 1.212-.348.36-.24.62-.556.78-.948a.801.801 0 01-.36.072c-.328 0-.6-.104-.816-.312-.208-.208-.312-.484-.312-.828 0-.352.108-.632.324-.84.224-.216.52-.324.888-.324s.66.112.876.336c.216.216.324.512.324.888 0 .56-.136 1.072-.408 1.536a2.926 2.926 0 01-1.104 1.104 3.141 3.141 0 01-1.56.396h-.912v-4.464c0-.672.2-1.212.6-1.62.408-.408.944-.612 1.608-.612h1.272zm-1.272 3.6c0 .176.052.316.156.42a.568.568 0 00.42.156.568.568 0 00.42-.156.568.568 0 00.156-.42.568.568 0 00-.156-.42.568.568 0 00-.42-.156.568.568 0 00-.42.156.568.568 0 00-.156.42zm4.19-7.272c-.064.848-.36 1.508-.888 1.98s-1.228.708-2.1.708c-.64 0-1.144-.04-1.512-.12v-.408c.6-.032.996-.192 1.188-.48a.922.922 0 01-.24.024c-.28 0-.508-.084-.684-.252a.87.87 0 01-.264-.66c0-.304.096-.544.288-.72.184-.184.432-.276.744-.276s.564.092.756.276c.184.176.276.416.276.72 0 .24-.04.472-.12.696-.08.216-.192.4-.336.552v.012c.624-.016 1.116-.196 1.476-.54.352-.352.564-.856.636-1.512h.78zm-3.948.792c0 .136.044.248.132.336.088.08.2.12.336.12a.48.48 0 00.336-.12.455.455 0 00.132-.336.455.455 0 00-.132-.336.455.455 0 00-.336-.132.455.455 0 00-.336.132.455.455 0 00-.132.336zm9.5 2.88c.465 0 .825.148 1.08.444.265.296.397.704.397 1.224V145h-.864v-5.028c0-.272-.056-.484-.168-.636a.5.5 0 00-.444-.24h-.048L41.299 145h-.996v-4.476a1 1 0 01-.396.072c-.352 0-.636-.104-.852-.312-.208-.216-.312-.496-.312-.84 0-.352.108-.632.324-.84.224-.216.52-.324.888-.324s.66.108.876.324c.224.208.336.488.336.84v4.08h.012l2.052-5.22h.504zm-3.78 1.716a.568.568 0 00.42-.156.568.568 0 00.157-.42.568.568 0 00-.156-.42.568.568 0 00-.42-.156.568.568 0 00-.42.156.568.568 0 00-.156.42c0 .176.052.316.156.42a.568.568 0 00.42.156zm4.698-2.724c-.392 0-.708-.116-.948-.348-.24-.232-.36-.54-.36-.924s.12-.692.36-.924c.24-.232.556-.348.948-.348.392 0 .708.116.948.348.24.232.36.54.36.924s-.12.692-.36.924c-.24.232-.556.348-.948.348zm0-.612c.2 0 .364-.06.492-.18.12-.12.18-.28.18-.48 0-.2-.06-.36-.18-.48a.69.69 0 00-.492-.18c-.2 0-.36.06-.48.18a.627.627 0 00-.192.48c0 .2.064.36.192.48.12.12.28.18.48.18zm5.904 3.54c0-.352-.096-.632-.288-.84-.184-.208-.432-.312-.744-.312h-.9c-.352 0-.636.132-.852.396-.216.256-.324.596-.324 1.02h-.84c0-.656.184-1.184.552-1.584.368-.4.856-.6 1.464-.6h.9c.568 0 1.024.176 1.368.528.352.352.528.816.528 1.392V145h-.864v-4.776zm7.24 7.2a9.614 9.614 0 01-1.236-2.532 9.438 9.438 0 01-.396-2.772v-.24c0-1.016.132-1.952.396-2.808a8.526 8.526 0 011.236-2.472h.936c-.584.832-1.016 1.676-1.296 2.532a9.024 9.024 0 00-.408 2.748v.24c0 .936.136 1.832.408 2.688.28.856.712 1.728 1.296 2.616h-.936zm4.304-2.328c-.68 0-1.228-.204-1.644-.612-.416-.416-.624-.96-.624-1.632h.864c0 .44.128.792.384 1.056s.596.396 1.02.396h1.152c.464 0 .836-.136 1.116-.408.288-.28.432-.648.432-1.104v-.744c0-.424-.148-.764-.444-1.02-.288-.256-.668-.384-1.14-.384h-3.084V136.6h5.244v.792H61.02v2.46h2.196c.744 0 1.34.2 1.788.6.456.4.684.932.684 1.596v.744c0 .456-.104.86-.312 1.212-.2.344-.484.612-.852.804-.368.192-.792.288-1.272.288H62.1zm4.664 2.328c.584-.88 1.012-1.748 1.284-2.604a8.63 8.63 0 00.42-2.7v-.24c0-.984-.14-1.904-.42-2.76-.272-.856-.7-1.696-1.284-2.52h.936c.56.784.972 1.608 1.236 2.472.264.856.396 1.792.396 2.808v.24c0 .984-.132 1.908-.396 2.772a9.614 9.614 0 01-1.236 2.532h-.936zM22.486 212.804c.352 0 .632.104.84.312.208.208.312.488.312.84s-.112.636-.336.852c-.216.208-.508.312-.876.312s-.664-.104-.888-.312c-.216-.216-.324-.5-.324-.852V208.4h.864v4.476c.112-.048.248-.072.408-.072zm-.06 1.728a.568.568 0 00.42-.156.568.568 0 00.156-.42.568.568 0 00-.156-.42.568.568 0 00-.42-.156.568.568 0 00-.42.156.568.568 0 00-.156.42c0 .176.052.316.156.42a.568.568 0 00.42.156zm5.73-6.228c.568 0 1.024.176 1.368.528.352.352.528.816.528 1.392V215h-.864v-.684c-.04-.84-.248-1.492-.624-1.956-.376-.472-.876-.708-1.5-.708-.4 0-.712.104-.936.312-.216.208-.324.496-.324.864v.048c.112-.048.248-.072.408-.072.352 0 .632.104.84.312.208.208.312.488.312.84s-.112.636-.336.852c-.216.208-.508.312-.876.312s-.664-.104-.888-.312c-.216-.216-.324-.5-.324-.852v-.984c0-.656.188-1.168.564-1.536.376-.368.896-.552 1.56-.552.464 0 .88.1 1.248.3.376.2.664.48.864.84h.012v-1.8c0-.352-.096-.632-.288-.84-.184-.208-.432-.312-.744-.312h-1.332c-.392 0-.708.116-.948.348-.232.232-.348.536-.348.912h-.84c0-.608.196-1.096.588-1.464.392-.376.908-.564 1.548-.564h1.332zm-1.428 5.652a.568.568 0 00-.156-.42.568.568 0 00-.42-.156.568.568 0 00-.42.156.568.568 0 00-.156.42c0 .176.052.316.156.42a.568.568 0 00.42.156.568.568 0 00.42-.156.568.568 0 00.156-.42zm3.206-6.564c-.944-.264-1.776-.436-2.495-.516-.72-.08-1.637-.12-2.748-.12.143-.656.451-1.168.924-1.536.463-.368 1.036-.552 1.716-.552.512 0 .968.116 1.367.348.392.224.697.544.912.96.216.408.325.88.325 1.416zm-.9-.828a1.297 1.297 0 00-.551-.888c-.32-.224-.72-.336-1.2-.336-.369 0-.689.076-.96.228a1.331 1.331 0 00-.588.636c.552-.016 1.12.008 1.704.072.584.064 1.116.16 1.596.288zm3.418 5.208c0-.584-.32-.936-.96-1.056.056-.416.2-.808.432-1.176.232-.368.524-.664.876-.888a2.09 2.09 0 011.152-.348h1.416c.568 0 1.028.176 1.38.528.352.344.528.8.528 1.368v4.8h-.864v-4.8c0-.336-.108-.608-.324-.816-.208-.208-.484-.312-.828-.312h-1.308c-.336 0-.644.12-.924.36-.272.24-.476.556-.612.948.28.136.5.328.66.576.16.248.24.52.24.816V215h-.864v-3.228zm11.13-3.468c.465 0 .825.148 1.08.444.264.296.397.704.397 1.224V215h-.864v-5.028c0-.272-.056-.484-.169-.636a.5.5 0 00-.444-.24h-.047L41.147 215h-.996v-4.476a1 1 0 01-.397.072c-.351 0-.636-.104-.851-.312-.209-.216-.313-.496-.313-.84 0-.352.108-.632.324-.84.224-.216.52-.324.889-.324.367 0 .66.108.876.324.224.208.335.488.335.84v4.08h.012l2.052-5.22h.505zm-3.78 1.716a.568.568 0 00.42-.156.568.568 0 00.157-.42.568.568 0 00-.157-.42.568.568 0 00-.42-.156.568.568 0 00-.42.156.568.568 0 00-.155.42c0 .176.052.316.156.42a.568.568 0 00.42.156zm4.697-2.724c-.392 0-.708-.116-.948-.348-.24-.232-.36-.54-.36-.924s.12-.692.36-.924c.24-.232.556-.348.948-.348.392 0 .708.116.948.348.24.232.36.54.36.924s-.12.692-.36.924c-.24.232-.556.348-.948.348zm0-.612c.2 0 .364-.06.492-.18.12-.12.18-.28.18-.48 0-.2-.06-.36-.18-.48a.69.69 0 00-.492-.18c-.2 0-.36.06-.48.18a.627.627 0 00-.192.48c0 .2.064.36.192.48.12.12.28.18.48.18zm5.904 3.54c0-.352-.096-.632-.288-.84-.184-.208-.432-.312-.744-.312h-.9c-.352 0-.636.132-.852.396-.216.256-.324.596-.324 1.02h-.84c0-.656.184-1.184.552-1.584.368-.4.856-.6 1.464-.6h.9c.568 0 1.024.176 1.368.528.352.352.528.816.528 1.392V215h-.864v-4.776zm7.24 7.2a9.614 9.614 0 01-1.235-2.532 9.438 9.438 0 01-.396-2.772v-.24c0-1.016.132-1.952.396-2.808a8.526 8.526 0 011.236-2.472h.936c-.584.832-1.016 1.676-1.296 2.532a9.024 9.024 0 00-.408 2.748v.24c0 .936.136 1.832.408 2.688.28.856.712 1.728 1.296 2.616h-.936zm4.449-2.328c-.696 0-1.252-.2-1.668-.6-.408-.4-.612-.928-.612-1.584h.864c0 .424.124.764.372 1.02.256.248.604.372 1.044.372h1.032c.464 0 .832-.164 1.104-.492.28-.328.42-.776.42-1.344v-1.452c-.24.288-.524.512-.852.672-.32.16-.672.24-1.056.24h-.804c-.712 0-1.284-.22-1.716-.66-.424-.448-.636-1.04-.636-1.776v-.48c0-.496.108-.932.324-1.308.216-.384.52-.68.912-.888.4-.208.86-.312 1.38-.312h.84c.496 0 .932.104 1.308.312.376.2.668.488.876.864.208.376.312.808.312 1.296v3.492c0 .824-.216 1.468-.648 1.932-.432.464-1.02.696-1.764.696h-1.032zm.672-3.96c.456 0 .856-.132 1.2-.396.352-.272.58-.616.684-1.032v-.828c0-.472-.148-.852-.444-1.14-.296-.296-.684-.444-1.164-.444h-.84c-.52 0-.94.16-1.26.48-.312.312-.468.724-.468 1.236v.48c0 .496.132.896.396 1.2.264.296.616.444 1.056.444h.84zm4 6.288c.584-.88 1.012-1.748 1.284-2.604a8.63 8.63 0 00.42-2.7v-.24c0-.984-.14-1.904-.42-2.76-.272-.856-.7-1.696-1.284-2.52h.936c.56.784.972 1.608 1.236 2.472.264.856.396 1.792.396 2.808v.24c0 .984-.132 1.908-.396 2.772a9.614 9.614 0 01-1.236 2.532h-.936zM207.44 86.772c0-.584-.32-.936-.96-1.056.056-.416.2-.808.432-1.176.232-.368.524-.664.876-.888a2.09 2.09 0 011.152-.348h1.416c.568 0 1.028.176 1.38.528.352.344.528.8.528 1.368V90h-.864v-4.8c0-.336-.108-.608-.324-.816-.208-.208-.484-.312-.828-.312h-1.308c-.336 0-.644.12-.924.36-.272.24-.476.556-.612.948.28.136.5.328.66.576.16.248.24.52.24.816V90h-.864v-3.228zm4.138-4.476c-.392 0-.708-.116-.948-.348-.24-.232-.36-.54-.36-.924s.12-.692.36-.924c.24-.232.556-.348.948-.348.392 0 .708.116.948.348.24.232.36.54.36.924s-.12.692-.36.924c-.24.232-.556.348-.948.348zm0-.612c.2 0 .364-.06.492-.18.12-.12.18-.28.18-.48 0-.2-.06-.36-.18-.48a.69.69 0 00-.492-.18c-.2 0-.36.06-.48.18a.627.627 0 00-.192.48c0 .2.064.36.192.48.12.12.28.18.48.18zm6.021 3.54c0-.352-.096-.632-.288-.84-.184-.208-.432-.312-.744-.312h-.9c-.352 0-.636.132-.852.396-.216.256-.324.596-.324 1.02h-.84c0-.656.184-1.184.552-1.584.368-.4.856-.6 1.464-.6h.9c.568 0 1.024.176 1.368.528.352.352.528.816.528 1.392V90h-.864v-4.776zm5.983-1.92c.568 0 1.024.176 1.368.528.352.352.528.816.528 1.392V90h-.864v-.684c-.04-.84-.248-1.492-.624-1.956-.376-.472-.876-.708-1.5-.708-.4 0-.712.104-.936.312-.216.208-.324.496-.324.864v.048c.112-.048.248-.072.408-.072.352 0 .632.104.84.312.208.208.312.488.312.84s-.112.636-.336.852c-.216.208-.508.312-.876.312s-.664-.104-.888-.312c-.216-.216-.324-.5-.324-.852v-.984c0-.656.188-1.168.564-1.536.376-.368.896-.552 1.56-.552.464 0 .88.1 1.248.3.376.2.664.48.864.84h.012v-1.8c0-.352-.096-.632-.288-.84-.184-.208-.432-.312-.744-.312h-1.332c-.392 0-.708.116-.948.348-.232.232-.348.536-.348.912h-.84c0-.608.196-1.096.588-1.464.392-.376.908-.564 1.548-.564h1.332zm-1.428 5.652a.568.568 0 00-.156-.42.568.568 0 00-.42-.156.568.568 0 00-.42.156.568.568 0 00-.156.42c0 .176.052.316.156.42a.568.568 0 00.42.156.568.568 0 00.42-.156.568.568 0 00.156-.42zm2.21-6.636c-.736 0-1.316-.128-1.74-.384-.424-.264-.636-.628-.636-1.092 0-.328.108-.592.324-.792.208-.208.484-.312.828-.312.352 0 .632.096.84.288.208.192.312.456.312.792a.86.86 0 01-.12.444.834.834 0 01-.312.312l.012.012c.16.032.348.048.564.048.544 0 .972-.16 1.284-.48.312-.328.476-.776.492-1.344h.804c-.024.784-.268 1.4-.732 1.848-.472.44-1.112.66-1.92.66zm-1.224-.924a.578.578 0 00.408-.144.578.578 0 00.144-.408c0-.168-.048-.3-.144-.396a.552.552 0 00-.408-.156c-.168 0-.3.052-.396.156a.512.512 0 00-.156.396c0 .168.052.304.156.408a.535.535 0 00.396.144zm7.174 1.884c.368 0 .66.108.876.324.224.208.336.488.336.84v4.14c0 .448-.116.796-.348 1.044-.232.248-.556.372-.972.372h-.516a.777.777 0 01-.42-.12.905.905 0 01-.312-.336l-2.136-3.828h.936l1.98 3.54h.396c.168 0 .296-.056.384-.168.096-.12.144-.288.144-.504v-3.06a.947.947 0 01-.396.072c-.352 0-.636-.104-.852-.312-.208-.216-.312-.496-.312-.84 0-.352.108-.632.324-.84.224-.216.52-.324.888-.324zm0 1.74a.568.568 0 00.42-.156.568.568 0 00.156-.42.568.568 0 00-.156-.42.568.568 0 00-.42-.156.568.568 0 00-.42.156.568.568 0 00-.156.42c0 .176.052.316.156.42a.568.568 0 00.42.156zm7.522-1.716c.464 0 .824.148 1.08.444.264.296.396.704.396 1.224V90h-.864v-5.028c0-.272-.056-.484-.168-.636a.5.5 0 00-.444-.24h-.048L235.4 90h-.996v-4.476a1 1 0 01-.396.072c-.352 0-.636-.104-.852-.312-.208-.216-.312-.496-.312-.84 0-.352.108-.632.324-.84.224-.216.52-.324.888-.324s.66.108.876.324c.224.208.336.488.336.84v4.08h.012l2.052-5.22h.504zm-3.78 1.716a.568.568 0 00.42-.156.568.568 0 00.156-.42.568.568 0 00-.156-.42.568.568 0 00-.42-.156.568.568 0 00-.42.156.568.568 0 00-.156.42c0 .176.052.316.156.42a.568.568 0 00.42.156zm4.697-2.724c-.392 0-.708-.116-.948-.348-.24-.232-.36-.54-.36-.924s.12-.692.36-.924c.24-.232.556-.348.948-.348.392 0 .708.116.948.348.24.232.36.54.36.924s-.12.692-.36.924c-.24.232-.556.348-.948.348zm0-.612c.2 0 .364-.06.492-.18.12-.12.18-.28.18-.48 0-.2-.06-.36-.18-.48a.69.69 0 00-.492-.18c-.2 0-.36.06-.48.18a.627.627 0 00-.192.48c0 .2.064.36.192.48.12.12.28.18.48.18zm5.904 3.54c0-.352-.096-.632-.288-.84-.184-.208-.432-.312-.744-.312h-.9c-.352 0-.636.132-.852.396-.216.256-.324.596-.324 1.02h-.84c0-.656.184-1.184.552-1.584.368-.4.856-.6 1.464-.6h.9c.568 0 1.024.176 1.368.528.352.352.528.816.528 1.392V90h-.864v-4.776zm7.241 7.2a9.614 9.614 0 01-1.236-2.532 9.438 9.438 0 01-.396-2.772v-.24c0-1.016.132-1.952.396-2.808a8.526 8.526 0 011.236-2.472h.936c-.584.832-1.016 1.676-1.296 2.532a9.024 9.024 0 00-.408 2.748v.24c0 .936.136 1.832.408 2.688.28.856.712 1.728 1.296 2.616h-.936zm4.712-2.328c-.504 0-.952-.116-1.344-.348a2.385 2.385 0 01-.9-.984c-.208-.424-.312-.912-.312-1.464v-3c0-.864.228-1.544.684-2.04.456-.504 1.068-.756 1.836-.756h1.032c.656 0 1.184.208 1.584.624.4.408.6.948.6 1.62h-.864c0-.44-.12-.792-.36-1.056s-.56-.396-.96-.396h-1.032c-.496 0-.892.176-1.188.528-.296.352-.444.844-.444 1.476v1.488c.208-.344.492-.616.852-.816.368-.2.744-.3 1.128-.3h.78c.704 0 1.268.22 1.692.66.424.44.636 1.02.636 1.74v.456c0 .504-.108.952-.324 1.344a2.236 2.236 0 01-.888.9c-.384.216-.828.324-1.332.324h-.876zm.876-.792c.496 0 .896-.16 1.2-.48.304-.328.456-.76.456-1.296v-.48c0-.472-.132-.852-.396-1.14-.264-.296-.616-.444-1.056-.444h-.792c-.472 0-.88.168-1.224.504a2.246 2.246 0 00-.66 1.224v.432c0 .504.148.912.444 1.224.296.304.688.456 1.176.456h.852zm3.485 3.12c.584-.88 1.012-1.748 1.284-2.604a8.63 8.63 0 00.42-2.7v-.24c0-.984-.14-1.904-.42-2.76-.272-.856-.7-1.696-1.284-2.52h.936c.56.784.972 1.608 1.236 2.472.264.856.396 1.792.396 2.808v.24c0 .984-.132 1.908-.396 2.772a9.614 9.614 0 01-1.236 2.532h-.936zM212.18 143.4v4.944c0 .512-.132.916-.396 1.212-.264.296-.652.444-1.164.444h-2.964c-.224 0-.4-.064-.528-.192s-.192-.304-.192-.528v-.732c0-.376.076-.7.228-.972.16-.28.392-.496.696-.648v-.012c-.36-.136-.624-.324-.792-.564-.168-.248-.252-.572-.252-.972 0-.632.152-1.14.456-1.524a1.49 1.49 0 011.212-.576c.368 0 .664.108.888.324.224.208.336.488.336.84 0 .344-.108.624-.324.84-.208.208-.488.312-.84.312-.2 0-.384-.044-.552-.132a.925.925 0 01-.372-.372 1.28 1.28 0 00-.024.288c0 .408.116.704.348.888.232.184.6.276 1.104.276h.504v.744h-.504c-.832 0-1.248.42-1.248 1.26v.684h2.688c.296 0 .508-.068.636-.204.128-.136.192-.364.192-.684V143.4h.864zm-3.696.468a.568.568 0 00-.42.156.568.568 0 00-.156.42c0 .176.052.316.156.42a.568.568 0 00.42.156.568.568 0 00.42-.156.545.545 0 00.168-.42.545.545 0 00-.168-.42.568.568 0 00-.42-.156zm2.697-1.548c-.736 0-1.316-.128-1.74-.384-.424-.264-.636-.628-.636-1.092 0-.328.108-.592.324-.792.208-.208.484-.312.828-.312.352 0 .632.096.84.288.208.192.312.456.312.792a.86.86 0 01-.12.444.834.834 0 01-.312.312l.012.012c.16.032.348.048.564.048.544 0 .972-.16 1.284-.48.312-.328.476-.776.492-1.344h.804c-.024.784-.268 1.4-.732 1.848-.472.44-1.112.66-1.92.66zm-1.224-.924a.578.578 0 00.408-.144.578.578 0 00.144-.408c0-.168-.048-.3-.144-.396a.552.552 0 00-.408-.156c-.168 0-.3.052-.396.156a.512.512 0 00-.156.396c0 .168.052.304.156.408a.535.535 0 00.396.144zm7.056 1.884c.368 0 .66.108.876.324.224.208.336.488.336.84v4.14c0 .448-.116.796-.348 1.044-.232.248-.556.372-.972.372h-.516a.777.777 0 01-.42-.12.905.905 0 01-.312-.336l-2.136-3.828h.936l1.98 3.54h.396c.168 0 .296-.056.384-.168.096-.12.144-.288.144-.504v-3.06a.947.947 0 01-.396.072c-.352 0-.636-.104-.852-.312-.208-.216-.312-.496-.312-.84 0-.352.108-.632.324-.84.224-.216.52-.324.888-.324zm0 1.74a.568.568 0 00.42-.156.568.568 0 00.156-.42.568.568 0 00-.156-.42.568.568 0 00-.42-.156.568.568 0 00-.42.156.568.568 0 00-.156.42c0 .176.052.316.156.42a.568.568 0 00.42.156zm5.843 2.784c.352 0 .632.104.84.312.208.208.312.488.312.84s-.112.636-.336.852c-.216.208-.508.312-.876.312s-.664-.104-.888-.312c-.216-.216-.324-.5-.324-.852v-9.324l-1.452 1.968h-.12a.29.29 0 01-.192-.06.865.865 0 01-.132-.192l-1.488-2.58h.816l1.032 1.872 1.416-1.944h.12c.296 0 .512.068.648.204.144.128.216.332.216.612v8.364c.112-.048.248-.072.408-.072zm-.06 1.728a.568.568 0 00.42-.156.568.568 0 00.156-.42.568.568 0 00-.156-.42.568.568 0 00-.42-.156.568.568 0 00-.42.156.568.568 0 00-.156.42c0 .176.052.316.156.42a.568.568 0 00.42.156zm8.107-6.132v6.6h-.84a4.768 4.768 0 00-1.224-1.212c-.488-.344-.972-.564-1.452-.66v1.74c-.112.08-.26.14-.444.18a2.372 2.372 0 01-.6.072c-.392 0-.712-.116-.96-.348-.24-.24-.36-.552-.36-.936 0-.448.136-.8.408-1.056.28-.264.644-.396 1.092-.396v-1.86a.947.947 0 01-.396.072c-.352 0-.636-.104-.852-.312-.208-.216-.312-.496-.312-.84 0-.352.108-.632.324-.84.224-.216.52-.324.888-.324s.66.108.876.324c.224.208.336.488.336.84v2.964c.472.088.952.272 1.44.552s.892.6 1.212.96v-5.52h.864zm-4.728 1.62a.568.568 0 00.42-.156.568.568 0 00.156-.42.568.568 0 00-.156-.42.568.568 0 00-.42-.156.568.568 0 00-.42.156.568.568 0 00-.156.42c0 .176.052.316.156.42a.568.568 0 00.42.156zm.42 3.036h-.096c-.248 0-.44.072-.576.216-.136.136-.204.324-.204.564 0 .208.052.372.156.492a.6.6 0 00.444.168c.144 0 .236-.02.276-.06v-1.38zm3.468-8.172h.84v2.388h-.84v-2.388zm5.472 7.92c.352 0 .632.104.84.312.208.208.312.488.312.84s-.112.636-.336.852c-.216.208-.508.312-.876.312s-.664-.104-.888-.312c-.216-.216-.324-.5-.324-.852v-9.324l-1.452 1.968h-.12a.29.29 0 01-.192-.06.865.865 0 01-.132-.192l-1.488-2.58h.816l1.032 1.872 1.416-1.944h.12c.296 0 .512.068.648.204.144.128.216.332.216.612v8.364c.112-.048.248-.072.408-.072zm-.06 1.728a.568.568 0 00.42-.156.568.568 0 00.156-.42.568.568 0 00-.156-.42.568.568 0 00-.42-.156.568.568 0 00-.42.156.568.568 0 00-.156.42c0 .176.052.316.156.42a.568.568 0 00.42.156zm6.008-6.228c.64 0 1.16.2 1.56.6.4.4.6.928.6 1.584V150h-.864v-4.512c0-.424-.12-.764-.36-1.02-.24-.264-.552-.396-.936-.396h-1.272c-.4 0-.724.136-.972.408-.248.264-.372.616-.372 1.056v3.732h.204c.456 0 .86-.116 1.212-.348.36-.24.62-.556.78-.948a.801.801 0 01-.36.072c-.328 0-.6-.104-.816-.312-.208-.208-.312-.484-.312-.828 0-.352.108-.632.324-.84.224-.216.52-.324.888-.324s.66.112.876.336c.216.216.324.512.324.888 0 .56-.136 1.072-.408 1.536a2.926 2.926 0 01-1.104 1.104 3.141 3.141 0 01-1.56.396h-.912v-4.464c0-.672.2-1.212.6-1.62.408-.408.944-.612 1.608-.612h1.272zm-1.272 3.6c0 .176.052.316.156.42a.568.568 0 00.42.156.568.568 0 00.42-.156.568.568 0 00.156-.42.568.568 0 00-.156-.42.568.568 0 00-.42-.156.568.568 0 00-.42.156.568.568 0 00-.156.42zm4.189-7.272c-.064.848-.36 1.508-.888 1.98s-1.228.708-2.1.708c-.64 0-1.144-.04-1.512-.12v-.408c.6-.032.996-.192 1.188-.48a.922.922 0 01-.24.024c-.28 0-.508-.084-.684-.252a.87.87 0 01-.264-.66c0-.304.096-.544.288-.72.184-.184.432-.276.744-.276s.564.092.756.276c.184.176.276.416.276.72 0 .24-.04.472-.12.696-.08.216-.192.4-.336.552v.012c.624-.016 1.116-.196 1.476-.54.352-.352.564-.856.636-1.512h.78zm-3.948.792c0 .136.044.248.132.336.088.08.2.12.336.12a.48.48 0 00.336-.12.455.455 0 00.132-.336.455.455 0 00-.132-.336.455.455 0 00-.336-.132.455.455 0 00-.336.132.455.455 0 00-.132.336zm9.502 2.88c.464 0 .824.148 1.08.444.264.296.396.704.396 1.224V150h-.864v-5.028c0-.272-.056-.484-.168-.636a.5.5 0 00-.444-.24h-.048L247.518 150h-.996v-4.476a1 1 0 01-.396.072c-.352 0-.636-.104-.852-.312-.208-.216-.312-.496-.312-.84 0-.352.108-.632.324-.84.224-.216.52-.324.888-.324s.66.108.876.324c.224.208.336.488.336.84v4.08h.012l2.052-5.22h.504zm-3.78 1.716a.568.568 0 00.42-.156.568.568 0 00.156-.42.568.568 0 00-.156-.42.568.568 0 00-.42-.156.568.568 0 00-.42.156.568.568 0 00-.156.42c0 .176.052.316.156.42a.568.568 0 00.42.156zm4.697-2.724c-.392 0-.708-.116-.948-.348-.24-.232-.36-.54-.36-.924s.12-.692.36-.924c.24-.232.556-.348.948-.348.392 0 .708.116.948.348.24.232.36.54.36.924s-.12.692-.36.924c-.24.232-.556.348-.948.348zm0-.612c.2 0 .364-.06.492-.18.12-.12.18-.28.18-.48 0-.2-.06-.36-.18-.48a.69.69 0 00-.492-.18c-.2 0-.36.06-.48.18a.627.627 0 00-.192.48c0 .2.064.36.192.48.12.12.28.18.48.18zm5.904 3.54c0-.352-.096-.632-.288-.84-.184-.208-.432-.312-.744-.312h-.9c-.352 0-.636.132-.852.396-.216.256-.324.596-.324 1.02h-.84c0-.656.184-1.184.552-1.584.368-.4.856-.6 1.464-.6h.9c.568 0 1.024.176 1.368.528.352.352.528.816.528 1.392V150h-.864v-4.776zm7.24 7.2a9.614 9.614 0 01-1.236-2.532 9.438 9.438 0 01-.396-2.772v-.24c0-1.016.132-1.952.396-2.808a8.526 8.526 0 011.236-2.472h.936c-.584.832-1.016 1.676-1.296 2.532a9.024 9.024 0 00-.408 2.748v.24c0 .936.136 1.832.408 2.688.28.856.712 1.728 1.296 2.616h-.936zm4.712-2.328c-.504 0-.952-.116-1.344-.348a2.385 2.385 0 01-.9-.984c-.208-.424-.312-.912-.312-1.464v-3c0-.864.228-1.544.684-2.04.456-.504 1.068-.756 1.836-.756h1.032c.656 0 1.184.208 1.584.624.4.408.6.948.6 1.62h-.864c0-.44-.12-.792-.36-1.056s-.56-.396-.96-.396h-1.032c-.496 0-.892.176-1.188.528-.296.352-.444.844-.444 1.476v1.488c.208-.344.492-.616.852-.816.368-.2.744-.3 1.128-.3h.78c.704 0 1.268.22 1.692.66.424.44.636 1.02.636 1.74v.456c0 .504-.108.952-.324 1.344a2.236 2.236 0 01-.888.9c-.384.216-.828.324-1.332.324h-.876zm.876-.792c.496 0 .896-.16 1.2-.48.304-.328.456-.76.456-1.296v-.48c0-.472-.132-.852-.396-1.14-.264-.296-.616-.444-1.056-.444h-.792c-.472 0-.88.168-1.224.504a2.246 2.246 0 00-.66 1.224v.432c0 .504.148.912.444 1.224.296.304.688.456 1.176.456h.852zm3.485 3.12c.584-.88 1.012-1.748 1.284-2.604a8.63 8.63 0 00.42-2.7v-.24c0-.984-.14-1.904-.42-2.76-.272-.856-.7-1.696-1.284-2.52h.936c.56.784.972 1.608 1.236 2.472.264.856.396 1.792.396 2.808v.24c0 .984-.132 1.908-.396 2.772a9.614 9.614 0 01-1.236 2.532h-.936z"/><path fill="#A6A6A6" d="M126.391 129.16c-.096.379-.299.635-.608.768.138.107.245.24.319.4.081.16.121.339.121.536V134h-.752v-.504c-.022-.501-.152-.896-.392-1.184a1.14 1.14 0 00-.936-.44c-.23 0-.414.053-.552.16a.59.59 0 00-.216.456.72.72 0 01.192-.024c.24 0 .432.072.576.216.149.144.224.336.224.576 0 .245-.08.445-.24.6-.155.149-.363.224-.624.224-.262 0-.472-.075-.632-.224a.812.812 0 01-.232-.6v-.632c0-.437.13-.779.392-1.024.261-.245.626-.368 1.096-.368.293 0 .557.061.792.184.234.117.421.285.56.504v-1.048a.696.696 0 00-.168-.488.557.557 0 00-.44-.192h-.888c-.235 0-.424.067-.568.2a.688.688 0 00-.208.52h-.728c0-.411.136-.741.408-.992.277-.256.642-.384 1.096-.384h.952c.213 0 .368-.027.464-.08a.562.562 0 00.232-.304l.032-.072h.744l-.016.08zm-2.512 4.096a.369.369 0 00-.104-.272.37.37 0 00-.272-.104.369.369 0 00-.272.104.365.365 0 00-.104.272c0 .112.034.203.104.272.069.069.16.104.272.104a.37.37 0 00.272-.104.369.369 0 00.104-.272zm1.605-6h.736v1.64h-.736v-1.64zm3.985 2.264c.266 0 .48.077.64.232.165.155.248.36.248.616v2.664c0 .304-.083.541-.248.712-.16.171-.382.256-.664.256h-.44a.613.613 0 01-.328-.088.636.636 0 01-.232-.256l-1.424-2.544h.8l1.256 2.256h.256a.244.244 0 00.2-.088.447.447 0 00.072-.272v-1.832a.614.614 0 01-.176.024c-.251 0-.454-.075-.608-.224a.82.82 0 01-.232-.608c0-.256.08-.461.24-.616.16-.155.373-.232.64-.232zm0 1.224c.117 0 .21-.035.28-.104a.369.369 0 00.104-.272.38.38 0 00-.104-.28.381.381 0 00-.28-.104.369.369 0 00-.272.104.376.376 0 00-.104.28c0 .112.034.203.104.272.069.069.16.104.272.104zm4.828-1.208c.379 0 .672.125.88.376.214.251.32.597.32 1.04V134h-.736v-3.048c0-.235-.042-.419-.128-.552a.374.374 0 00-.336-.2h-.096l-.672.56-.672-.56h-.096a.42.42 0 00-.368.208c-.085.133-.128.317-.128.552v2.456h.104c.267 0 .507-.056.72-.168.214-.117.374-.275.48-.472a.998.998 0 01-.144.008.773.773 0 01-.56-.208.767.767 0 01-.216-.568c0-.245.075-.44.224-.584.155-.149.36-.224.616-.224.251 0 .451.075.6.224.155.149.232.352.232.608 0 .368-.09.701-.272 1a1.948 1.948 0 01-.736.704 2.25 2.25 0 01-1.064.264h-.712v-3.04c0-.448.107-.797.32-1.048.219-.251.52-.376.904-.376h.192l.576.512.576-.512h.192zm-1.184 2.472c0 .112.035.203.104.272.07.064.16.096.272.096.112 0 .2-.032.264-.096a.365.365 0 00.104-.272.365.365 0 00-.104-.272.343.343 0 00-.264-.104.37.37 0 00-.272.104.369.369 0 00-.104.272zm1.567-4.752h.736v1.64h-.736v-1.64zm4.294 2.28c.405 0 .731.123.976.368s.368.571.368.976v1.968c0 .357-.096.64-.288.848-.192.203-.467.304-.824.304h-1.88a.58.58 0 01-.416-.144.552.552 0 01-.152-.408v-1.472c0-.245.077-.443.232-.592.16-.155.371-.232.632-.232s.469.077.624.232c.16.149.24.347.24.592 0 .24-.075.432-.224.576-.144.144-.339.216-.584.216a.641.641 0 01-.184-.024v.624h1.624c.171 0 .288-.043.352-.128.069-.091.104-.224.104-.4v-1.968a.696.696 0 00-.168-.488.534.534 0 00-.432-.192h-1.032c-.235 0-.424.067-.568.2a.688.688 0 00-.208.52h-.728c0-.416.136-.749.408-1 .272-.251.637-.376 1.096-.376h1.032zm-1.352 2.064a.369.369 0 00-.272.104.385.385 0 00-.096.272c0 .112.032.203.096.272.069.064.16.096.272.096a.385.385 0 00.272-.096.369.369 0 00.104-.272.369.369 0 00-.104-.272.369.369 0 00-.272-.104zm6.945 4.016a6.455 6.455 0 01-.84-1.688 6.1 6.1 0 01-.272-1.848v-.16c0-.677.09-1.301.272-1.872.181-.571.461-1.12.84-1.648h.792a6.597 6.597 0 00-.88 1.696 5.77 5.77 0 00-.28 1.824v.16c0 .619.093 1.213.28 1.784.186.571.48 1.155.88 1.752h-.792zm4.739-4.496c.229.117.408.275.536.472.133.192.2.408.2.648v.32c0 .299-.07.563-.208.792a1.43 1.43 0 01-.592.528 2.028 2.028 0 01-.888.184h-.776c-.502 0-.904-.152-1.208-.456-.299-.309-.448-.723-.448-1.24h.744c0 .309.082.557.248.744.165.181.386.272.664.272h.776c.277 0 .501-.075.672-.224a.758.758 0 00.256-.6v-.32c0-.251-.086-.443-.256-.576-.166-.133-.398-.2-.696-.2h-.904v-.656h.904c.266 0 .474-.067.624-.2.149-.133.224-.32.224-.56v-.32a.65.65 0 00-.224-.52c-.144-.128-.339-.192-.584-.192h-.776a.79.79 0 00-.632.28c-.155.181-.232.427-.232.736h-.768c0-.517.146-.928.44-1.232.298-.309.696-.464 1.192-.464h.776c.474 0 .853.128 1.136.384.288.251.432.587.432 1.008v.32c0 .224-.056.432-.168.624a1.248 1.248 0 01-.464.448zm1.325 4.496a7.06 7.06 0 00.88-1.744c.186-.571.28-1.168.28-1.792v-.16c0-.656-.096-1.269-.288-1.84a6.191 6.191 0 00-.872-1.68h.792c.378.528.658 1.077.84 1.648.181.571.272 1.195.272 1.872v.16c0 .656-.091 1.272-.272 1.848a6.518 6.518 0 01-.84 1.688h-.792z"/><path fill="#FF9145" d="M124.803 89.536c.352 0 .624.104.816.312.192.203.288.49.288.864V94h-.744v-3.296a.635.635 0 00-.088-.36.259.259 0 00-.232-.128h-.032L123.347 94h-.888v-2.816c-.075.01-.134.016-.176.016-.251 0-.454-.075-.608-.224-.155-.155-.232-.357-.232-.608 0-.256.08-.461.24-.616.16-.155.373-.232.64-.232.261 0 .472.077.632.232.16.155.24.36.24.616v2.504h.008l1.264-3.336h.336zm-2.864.832c0 .112.034.203.104.272.069.07.162.104.28.104a.369.369 0 00.272-.104.37.37 0 00.104-.272.38.38 0 00-.104-.28.369.369 0 00-.272-.104.377.377 0 00-.28.104.376.376 0 00-.104.28zm3.513-1.448c-.277 0-.501-.08-.672-.24-.171-.165-.256-.384-.256-.656a.86.86 0 01.256-.648c.171-.165.395-.248.672-.248s.501.083.672.248a.86.86 0 01.256.648c0 .272-.085.49-.256.656-.171.16-.395.24-.672.24zm0-.472a.439.439 0 00.312-.112c.08-.08.12-.184.12-.312a.386.386 0 00-.12-.296.422.422 0 00-.312-.12.422.422 0 00-.312.12.386.386 0 00-.12.296c0 .128.04.232.12.312.08.075.184.112.312.112zm3.92 2.424a.696.696 0 00-.168-.488.557.557 0 00-.44-.192h-.6a.614.614 0 00-.504.24c-.128.16-.192.37-.192.632h-.728c0-.459.131-.827.392-1.104.261-.283.605-.424 1.032-.424h.6c.405 0 .731.123.976.368.251.245.376.568.376.968V94h-.744v-3.128zm4.691-1.336c.379 0 .672.125.88.376.213.25.32.597.32 1.04V94h-.736v-3.048c0-.235-.043-.419-.128-.552a.373.373 0 00-.336-.2h-.096l-.672.56-.672-.56h-.096a.42.42 0 00-.368.208c-.085.133-.128.317-.128.552v2.456h.104c.267 0 .507-.056.72-.168.213-.117.373-.275.48-.472a.956.956 0 01-.144.008.774.774 0 01-.56-.208.768.768 0 01-.216-.568c0-.245.075-.44.224-.584.155-.15.36-.224.616-.224.251 0 .451.075.6.224.155.15.232.352.232.608 0 .368-.091.701-.272 1a1.945 1.945 0 01-.736.704 2.26 2.26 0 01-1.064.264h-.712v-3.04c0-.448.107-.797.32-1.048.219-.25.52-.376.904-.376h.192l.576.512.576-.512h.192zm-1.184 2.472a.37.37 0 00.104.272c.069.064.16.096.272.096.112 0 .2-.032.264-.096a.37.37 0 00.104-.272.37.37 0 00-.104-.272.342.342 0 00-.264-.104.367.367 0 00-.272.104.37.37 0 00-.104.272zm1.566-4.752h.736v1.64h-.736v-1.64zm4.295 2.28c.405 0 .73.123.976.368.245.245.368.57.368.976v1.968c0 .357-.096.64-.288.848-.192.203-.467.304-.824.304h-1.88a.58.58 0 01-.416-.144.549.549 0 01-.152-.408v-1.472c0-.245.077-.443.232-.592.16-.155.37-.232.632-.232.261 0 .469.077.624.232.16.15.24.347.24.592 0 .24-.075.432-.224.576-.144.144-.339.216-.584.216a.636.636 0 01-.184-.024v.624h1.624c.17 0 .288-.043.352-.128.069-.09.104-.224.104-.4v-1.968a.696.696 0 00-.168-.488.534.534 0 00-.432-.192h-1.032c-.235 0-.424.067-.568.2a.688.688 0 00-.208.52h-.728c0-.416.136-.75.408-1 .272-.25.637-.376 1.096-.376h1.032zm-1.352 2.064a.367.367 0 00-.272.104.385.385 0 00-.096.272c0 .112.032.203.096.272.069.064.16.096.272.096a.386.386 0 00.272-.096.37.37 0 00.104-.272.37.37 0 00-.104-.272.369.369 0 00-.272-.104zm6.944 4.016a6.518 6.518 0 01-.84-1.688 6.131 6.131 0 01-.272-1.848v-.16c0-.677.091-1.301.272-1.872.182-.57.462-1.12.84-1.648h.792a6.633 6.633 0 00-.88 1.696 5.802 5.802 0 00-.28 1.824v.16c0 .619.094 1.213.28 1.784a7.2 7.2 0 00.88 1.752h-.792zm3.027-1.552c-.485 0-.872-.144-1.16-.432-.288-.288-.432-.675-.432-1.16h.744c0 .277.078.499.232.664.155.165.36.248.616.248h.768c.283 0 .512-.083.688-.248.176-.165.264-.384.264-.656v-.472c0-.25-.09-.453-.272-.608-.176-.155-.41-.232-.704-.232h-2.136V88.4h3.664v.68h-2.904v1.416h1.376c.523 0 .942.139 1.256.416.32.272.48.637.48 1.096v.472c0 .315-.072.592-.216.832a1.41 1.41 0 01-.6.56 1.978 1.978 0 01-.896.192h-.768zm3.108 1.552c.4-.592.693-1.173.88-1.744.186-.57.28-1.168.28-1.792v-.16c0-.656-.096-1.27-.288-1.84a6.2 6.2 0 00-.872-1.68h.792c.378.528.658 1.077.84 1.648.181.57.272 1.195.272 1.872v.16c0 .656-.091 1.272-.272 1.848a6.518 6.518 0 01-.84 1.688h-.792z"/><path fill="#737373" d="M129.64 214.032a.685.685 0 00-.528.216c-.128.144-.2.344-.216.6.448.085.872.2 1.272.344.405.139.763.299 1.072.48v1.632a.754.754 0 01-.224.568c-.144.139-.339.208-.584.208-.245 0-.443-.069-.592-.208a.767.767 0 01-.216-.568c0-.229.069-.413.208-.552a.767.767 0 01.568-.216.63.63 0 01.264.048v-.656c-.496-.288-1.277-.528-2.344-.72 0-.523.117-.933.352-1.232.235-.304.56-.456.976-.456.128 0 .245.016.352.048.112.027.251.072.416.136.139.053.251.093.336.12.085.027.176.04.272.04.128 0 .251-.021.368-.064a.919.919 0 00.304-.2v.528a.787.787 0 01-.28.176 1.092 1.092 0 01-.344.056c-.112 0-.219-.013-.32-.04a4.348 4.348 0 01-.368-.12 4.06 4.06 0 00-.4-.128 1.338 1.338 0 00-.344-.04zm.792 3.656a.38.38 0 00.28-.104.38.38 0 00.104-.28.38.38 0 00-.104-.28.38.38 0 00-.28-.104.38.38 0 00-.28.104.38.38 0 00-.104.28.38.38 0 00.104.28.38.38 0 00.28.104zm4.432-4.152c.378 0 .682.117.912.352.234.235.352.544.352.928v2.08c0 .341-.088.611-.264.808-.176.197-.435.296-.776.296h-1.864a.475.475 0 01-.352-.128.473.473 0 01-.128-.352v-1.584c0-.235.072-.421.216-.56.149-.144.346-.216.592-.216.245 0 .44.072.584.216a.728.728 0 01.224.56c0 .229-.07.416-.208.56-.139.139-.326.208-.56.208a.686.686 0 01-.272-.048v.832h1.72c.197 0 .33-.045.4-.136.074-.096.112-.248.112-.456v-2.08c0-.235-.064-.421-.192-.56a.628.628 0 00-.496-.208h-1.024c-.262 0-.472.077-.632.232a.82.82 0 00-.232.608h-.56c0-.405.13-.731.392-.976.261-.251.605-.376 1.032-.376h1.024zm-1.312 2.016a.378.378 0 00-.28.104.376.376 0 00-.104.28c0 .117.034.211.104.28a.378.378 0 00.28.104c.117 0 .21-.035.28-.104a.38.38 0 00.104-.28.38.38 0 00-.104-.28.381.381 0 00-.28-.104zm5.932-3.152h2.712c.416 0 .749.117 1 .352.256.235.384.544.384.928v.824c0 .411-.136.744-.408 1-.272.251-.63.376-1.072.376h-2.024V218h-.592v-5.6zm2.6 2.952c.272 0 .49-.077.656-.232a.841.841 0 00.248-.632v-.824a.674.674 0 00-.224-.528c-.144-.139-.339-.208-.584-.208h-2.104v2.424h2.008zm3.464 2.648c-.395 0-.677-.083-.848-.248-.171-.171-.256-.451-.256-.84V212.4h.576v4.512c0 .203.04.349.12.44.085.091.221.136.408.136h.272V218h-.272zm2.189.064c-.39 0-.702-.101-.936-.304-.23-.203-.344-.475-.344-.816v-.256c0-.336.12-.605.36-.808.24-.203.557-.304.952-.304h.512c.176 0 .357.027.544.08.186.053.346.125.48.216v-.664a.739.739 0 00-.208-.544.732.732 0 00-.552-.216h-.64c-.23 0-.414.053-.552.16a.508.508 0 00-.208.424h-.576c0-.325.122-.587.368-.784.245-.203.568-.304.968-.304h.64c.394 0 .712.117.952.352.245.229.368.533.368.912V218h-.544v-.56a1.344 1.344 0 01-.488.456 1.234 1.234 0 01-.616.168h-.48zm.496-.504c.25 0 .474-.077.672-.232.197-.155.33-.36.4-.616v-.296a1.123 1.123 0 00-.448-.24 1.767 1.767 0 00-.576-.096h-.512a.824.824 0 00-.536.168.545.545 0 00-.2.44v.256c0 .187.064.336.192.448.128.112.298.168.512.168h.496zm2.797-3.552h.56v.592c.123-.192.283-.349.48-.472a1.11 1.11 0 01.592-.184h.544c.368 0 .664.125.888.376.229.251.344.579.344.984V218h-.576v-2.712c0-.245-.061-.445-.184-.6a.59.59 0 00-.488-.232h-.512c-.251 0-.48.099-.688.296a1.344 1.344 0 00-.384.76V218h-.576v-3.992zm8.344 2.528c.235 0 .421.069.56.208.139.139.208.325.208.56a.754.754 0 01-.224.568c-.144.139-.339.208-.584.208-.245 0-.443-.069-.592-.208a.767.767 0 01-.216-.568v-3.928c0-.101.027-.197.08-.288.053-.096.133-.211.24-.344.133-.171.235-.32.304-.448a.976.976 0 00.104-.456v-.24a.681.681 0 00-.192-.504.624.624 0 00-.48-.2h-.28a.912.912 0 00-.48.112.646.646 0 00-.256.312l.008.008a.592.592 0 01.304-.08c.219 0 .395.067.528.2s.2.309.2.528a.722.722 0 01-.216.544c-.144.139-.333.208-.568.208a.78.78 0 01-.576-.224c-.144-.149-.216-.347-.216-.592v-.288c0-.368.117-.661.352-.88.235-.219.544-.328.928-.328h.28c.363 0 .653.109.872.328.224.219.336.504.336.856v.24c0 .219-.04.408-.12.568-.075.155-.179.32-.312.496a2.64 2.64 0 00-.2.304.46.46 0 00-.064.232v3.144a.69.69 0 01.272-.048zm-1.552-4.928a.369.369 0 00-.272.104.343.343 0 00-.104.264c0 .112.035.203.104.272.069.069.16.104.272.104a.369.369 0 00.272-.104.369.369 0 00.104-.272c0-.112-.035-.2-.104-.264a.369.369 0 00-.272-.104zm1.512 6.08a.38.38 0 00.28-.104.38.38 0 00.104-.28.38.38 0 00-.104-.28.38.38 0 00-.28-.104.38.38 0 00-.28.104.38.38 0 00-.104.28.38.38 0 00.104.28.38.38 0 00.28.104zm5.055-2.736a.54.54 0 01.176.24c.037.091.056.216.056.376V218h-.576v-2.472c0-.085-.014-.147-.04-.184-.022-.043-.064-.064-.128-.064l-1.848 2.72h-.608v-2.984a.669.669 0 01-.264.048c-.235 0-.424-.069-.568-.208a.773.773 0 01-.208-.56c0-.235.072-.421.216-.56.149-.144.346-.216.592-.216.245 0 .44.072.584.216a.728.728 0 01.224.56v2.928l1.56-2.312a.792.792 0 01-.248-.272.716.716 0 01-.088-.352c0-.229.072-.413.216-.552a.767.767 0 01.568-.216c.24 0 .432.072.576.216a.72.72 0 01.224.552.71.71 0 01-.416.656v.008zm-.384-.28c.117 0 .21-.035.28-.104a.38.38 0 00.104-.28.38.38 0 00-.104-.28.381.381 0 00-.28-.104.369.369 0 00-.272.104.376.376 0 00-.104.28c0 .117.032.211.096.28a.378.378 0 00.28.104zm-2.816.008c.117 0 .21-.035.28-.104a.38.38 0 00.104-.28.38.38 0 00-.104-.28.381.381 0 00-.28-.104.378.378 0 00-.28.104.376.376 0 00-.104.28c0 .117.034.211.104.28a.378.378 0 00.28.104zm8.452-1.08v4.4h-.56a3.168 3.168 0 00-.816-.808 2.565 2.565 0 00-.968-.44v1.16a.803.803 0 01-.296.12 1.578 1.578 0 01-.4.048.9.9 0 01-.64-.232.844.844 0 01-.24-.624c0-.299.091-.533.272-.704.187-.176.43-.264.728-.264v-1.24a.63.63 0 01-.264.048c-.234 0-.424-.069-.568-.208a.777.777 0 01-.208-.56c0-.235.072-.421.216-.56.15-.144.347-.216.592-.216.246 0 .44.072.584.216.15.139.224.325.224.56v1.976c.315.059.635.181.96.368.326.187.595.4.808.64v-3.68h.576zm-3.152 1.08a.378.378 0 00.28-.104.376.376 0 00.104-.28.376.376 0 00-.104-.28.378.378 0 00-.28-.104.381.381 0 00-.28.104.38.38 0 00-.104.28.38.38 0 00.104.28c.07.069.163.104.28.104zm.28 2.024h-.064a.504.504 0 00-.384.144.511.511 0 00-.136.376c0 .139.035.248.104.328a.4.4 0 00.296.112c.096 0 .158-.013.184-.04v-.92zm2.312-5.448h.56v1.592h-.56v-1.592zm4.814 8.36a6.42 6.42 0 01-.824-1.688 6.292 6.292 0 01-.264-1.848v-.16c0-.677.088-1.301.264-1.872a5.697 5.697 0 01.824-1.648h.624a6.435 6.435 0 00-.864 1.688 6.026 6.026 0 00-.272 1.832v.16c0 .624.091 1.221.272 1.792.187.571.475 1.152.864 1.744h-.624zm1.326-2.144c0-.293.053-.547.16-.76.106-.219.277-.416.512-.592l1.984-1.504c.277-.203.416-.448.416-.736v-.256a.708.708 0 00-.232-.552c-.155-.139-.36-.208-.616-.208h-.736a.854.854 0 00-.68.296c-.166.192-.248.451-.248.776h-.592c0-.485.136-.872.408-1.16.277-.293.642-.44 1.096-.44h.752c.432 0 .778.117 1.04.352.266.235.4.547.4.936v.256c0 .448-.214.829-.64 1.144l-1.928 1.432c-.192.139-.326.283-.4.432-.07.144-.104.339-.104.584h3.152V218h-3.744v-.528zm4.317 2.144a6.98 6.98 0 00.856-1.736c.187-.571.28-1.171.28-1.8v-.16c0-.656-.093-1.269-.28-1.84a6.099 6.099 0 00-.856-1.68h.624c.373.523.648 1.072.824 1.648a6.33 6.33 0 01.264 1.872v.16c0 .656-.088 1.272-.264 1.848a6.42 6.42 0 01-.824 1.688h-.624z"/><path fill="#fff" d="M169.298 47.8c0-.48.088-.896.264-1.248.176-.352.476-.656.9-.912l2.976-1.776a.849.849 0 00.336-.336.823.823 0 00.132-.432v-.384a.66.66 0 00-.252-.54c-.16-.136-.372-.204-.636-.204h-1.104c-.312 0-.556.116-.732.348-.176.224-.264.544-.264.96h-1.656c0-.872.232-1.552.696-2.04.464-.488 1.108-.732 1.932-.732h1.128c.504 0 .948.092 1.332.276.384.184.68.444.888.78.216.336.324.72.324 1.152v.384c0 .432-.092.804-.276 1.116-.176.304-.456.568-.84.792l-2.892 1.68a1.5 1.5 0 00-.444.372.852.852 0 00-.144.504h4.644V49h-6.312v-1.2zm10.032 1.296c-.56 0-1.056-.12-1.488-.36a2.586 2.586 0 01-1.008-1.044c-.24-.448-.36-.964-.36-1.548v-2.688c0-.584.116-1.1.348-1.548.24-.448.576-.792 1.008-1.032.432-.248.932-.372 1.5-.372h1.272c.552 0 1.04.124 1.464.372.424.24.752.584.984 1.032.24.448.36.964.36 1.548v2.688c0 .584-.116 1.1-.348 1.548a2.53 2.53 0 01-.984 1.044c-.424.24-.916.36-1.476.36h-1.272zm1.248-1.464c.352 0 .632-.132.84-.396.216-.272.324-.628.324-1.068v-2.736c0-.44-.108-.792-.324-1.056a1.003 1.003 0 00-.84-.408h-1.224c-.368 0-.664.136-.888.408-.224.264-.336.616-.336 1.056v2.736c0 .44.112.796.336 1.068.224.264.52.396.888.396h1.224zm3.802.168c0-.48.088-.896.264-1.248.176-.352.476-.656.9-.912l2.976-1.776a.849.849 0 00.336-.336.823.823 0 00.132-.432v-.384a.66.66 0 00-.252-.54c-.16-.136-.372-.204-.636-.204h-1.104c-.312 0-.556.116-.732.348-.176.224-.264.544-.264.96h-1.656c0-.872.232-1.552.696-2.04.464-.488 1.108-.732 1.932-.732h1.128c.504 0 .948.092 1.332.276.384.184.68.444.888.78.216.336.324.72.324 1.152v.384c0 .432-.092.804-.276 1.116-.176.304-.456.568-.84.792l-2.892 1.68a1.5 1.5 0 00-.444.372.852.852 0 00-.144.504h4.644V49h-6.312v-1.2zm10.739-.408h-3.42c-.336 0-.596-.072-.78-.216-.184-.144-.276-.352-.276-.624v-.336l4.464-5.616h1.668v5.328h1.056v1.464h-1.056V49h-1.656v-1.608zm.048-1.392v-3.324h-.012L192.527 46h2.64z"/><defs><linearGradient id="a" x1="98" x2="128" y1="166" y2="186" gradientUnits="userSpaceOnUse"><stop stop-color="#737373"/><stop offset="1" stop-color="#303030"/></linearGradient></defs></svg>