<svg xmlns="http://www.w3.org/2000/svg" fill="none" viewBox="0 0 60 64"><path fill="#52B1F5" d="M52.443 63.46l-11.37-11.32-.16.03v-.12l-24.19-23.92 5.97-5.75-3.51-20.13-16.63 20.62c-2.82 2.85-3.37 7.51-1.32 10.93l10.39 17.24c1.58 2.65 4.47 4.25 7.57 4.22l5.14-.05 28.11 8.24v.01z"/><path fill="#A77FF3" d="M58.672 22.44l-2.3-4.23-1.2-2.17-.47-.85-.05.05-6.25-10.85A8.726 8.726 0 0040.732 0l-5.49.16-16.37.04a8.794 8.794 0 00-7.51 4.33l-9.96 19.76 17.81-22.15 23.36 25.68-4.18 4.24 2.49 20.1.03-.04v.06h-.03l.05.05 1.94 1.9 9.42 9.21c.39.38 1.03-.08.78-.55l-5.82-11.46 10.14-18.77.31-.37c.12-.15.24-.29.35-.45a8.72 8.72 0 00.6-9.3h.02z"/><path fill="#fff" d="M42.632 27.75L19.212 2.19l3.33 20.01-5.96 5.78 24.27 24.12-2.18-20.02 3.97-4.33h-.01z"/></svg>