<svg xmlns="http://www.w3.org/2000/svg" xmlns:xlink="http://www.w3.org/1999/xlink" id="Layer_1" x="0" y="0" version="1.1" viewBox="0 0 189.3 162" xml:space="preserve"><style>.st0{clip-path:url(#SVGID_00000013879980047908369760000014333962450926967714_);fill:url(#SVGID_00000078733767835006856550000006406972695347467450_)}.st1{clip-path:url(#SVGID_00000166657476033872553300000009290018689514942103_);fill:url(#SVGID_00000098211131999124439290000005169890874362699711_)}.st2{clip-path:url(#SVGID_00000146479414203068755060000016979134224437623728_);fill:url(#SVGID_00000059285692623184630360000001939970175973229744_)}.st3{clip-path:url(#SVGID_00000126316706323320366270000003443020999953567882_);fill:url(#SVGID_00000057146489597920305920000000095531551485622941_)}.st4{clip-path:url(#SVGID_00000026133452627006666250000000783177764216147076_);fill:url(#SVGID_00000139986013050778127310000015816529348737596301_)}.st5{clip-path:url(#SVGID_00000059296638833140507400000008861971299043677096_);fill:url(#SVGID_00000068637401408036592480000016595487892732985731_)}.st6{clip-path:url(#SVGID_00000172429222656778552100000016729080874745752493_);fill:url(#SVGID_00000055696528104929319780000017787341016400387243_)}.st7{clip-path:url(#SVGID_00000138543928091543779610000002511334883899467966_);fill:url(#SVGID_00000116194030819667900180000011798705412116101279_)}</style><defs><path id="SVGID_1_" d="M87.8 149.1l26.9-2.1s9.2-1.5 14.6-10.4l-19-4.6-22.5 17.1z"/></defs><clipPath id="SVGID_00000147182750622660896660000006407372419834521264_"><use overflow="visible" xlink:href="#SVGID_1_"/></clipPath><linearGradient id="SVGID_00000043455066869680698080000005568379131735620027_" x1="-19.413" x2="-18.413" y1="-133.61" y2="-133.61" gradientTransform="scale(-178.4114) rotate(-78.53 71.607 -78.238)" gradientUnits="userSpaceOnUse"><stop offset="0" stop-color="#1593f5"/><stop offset="1" stop-color="#0084ce"/></linearGradient><path fill="url(#SVGID_00000043455066869680698080000005568379131735620027_)" d="M132.6 132.7l-4.9 24.5-43.3-8.8 5-24.5z" clip-path="url(#SVGID_00000147182750622660896660000006407372419834521264_)"/><defs><path id="SVGID_00000117666701953909478440000000358665142799502254_" d="M50.6 86c-8 .4-22.8 1.8-22.8 1.8l64.5 46.9 14.7 3.7 22.3-1.7-64.9-47S59.2 86 51.7 86h-1.1"/></defs><clipPath id="SVGID_00000021826999385872549080000006033995051984800693_"><use overflow="visible" xlink:href="#SVGID_00000117666701953909478440000000358665142799502254_"/></clipPath><linearGradient id="SVGID_00000178165318439686096770000016761567998857907644_" x1="-20.102" x2="-19.102" y1="-134.435" y2="-134.435" gradientTransform="scale(-280.7843) rotate(58.031 -130.837 -49.873)" gradientUnits="userSpaceOnUse"><stop offset="0" stop-color="#1593f5"/><stop offset="1" stop-color="#0084ce"/></linearGradient><path fill="url(#SVGID_00000178165318439686096770000016761567998857907644_)" d="M56.2 184l-52-83.3 96.6-60.3 52.1 83.3z" clip-path="url(#SVGID_00000021826999385872549080000006033995051984800693_)"/><defs><path id="SVGID_00000156577277383517703870000010068914798521039488_" d="M133.8 76.7l27.7-1.7s9.5-1.4 14.9-10.2l-19.7-4.9-22.9 16.8z"/></defs><clipPath id="SVGID_00000142889961474463198250000008302825665989277093_"><use overflow="visible" xlink:href="#SVGID_00000156577277383517703870000010068914798521039488_"/></clipPath><linearGradient id="SVGID_00000132086538092097319310000013227422625556950408_" x1="-20.188" x2="-19.188" y1="-134.65" y2="-134.65" gradientTransform="scale(-183.775) rotate(60.843 -124.438 -51.748)" gradientUnits="userSpaceOnUse"><stop offset="0" stop-color="#fff"/><stop offset="1" stop-color="#15abff"/></linearGradient><path fill="url(#SVGID_00000132086538092097319310000013227422625556950408_)" d="M143.9 94.8l-17.3-31 39.7-22.1 17.3 31z" clip-path="url(#SVGID_00000142889961474463198250000008302825665989277093_)"/><g><defs><path id="SVGID_00000098205560235091293490000000421317058630212272_" d="M94.6 12.7c-8.3.3-23.5 1.5-23.5 1.5l67.2 48 15.2 3.9 23-1.4-67.6-48.1s-5.6-3.9-13.5-3.9h-.8"/></defs><clipPath id="SVGID_00000093861389545452675440000006562489652059062448_"><use overflow="visible" xlink:href="#SVGID_00000098205560235091293490000000421317058630212272_"/></clipPath><linearGradient id="SVGID_00000028286881209211410930000013657892739144660655_" x1="-19.758" x2="-18.758" y1="-133.385" y2="-133.385" gradientTransform="scale(189.8857) rotate(66.4 -111.282 -51.524)" gradientUnits="userSpaceOnUse"><stop offset="0" stop-color="#fff"/><stop offset="1" stop-color="#79cfff"/></linearGradient><path fill="url(#SVGID_00000028286881209211410930000013657892739144660655_)" d="M159.6-25.9l36.5 83.5L88 104.8 51.5 21.3z" clip-path="url(#SVGID_00000093861389545452675440000006562489652059062448_)"/></g><g><defs><path id="SVGID_00000124852738755951175750000014112089622672183742_" d="M11.8 98.2c-.1.1-.1.2-.1.3l17.7 12.8L46.9 124l29.4 21.3c9.9 7.1 23.3 4.1 30.1-6.9l-17.9-12.9-17.9-12.9-29.1-21.2c-3.6-2.6-7.6-3.8-11.6-3.8-7 0-13.9 3.7-18.1 10.6"/></defs><clipPath id="SVGID_00000173141673324521593940000008495516377158554543_"><use overflow="visible" xlink:href="#SVGID_00000124852738755951175750000014112089622672183742_"/></clipPath><linearGradient id="SVGID_00000041979392027505662920000001185191142966959546_" x1="-19.399" x2="-18.399" y1="-133.909" y2="-133.909" gradientTransform="scale(-206.3041) rotate(-54.162 120.938 -85.147)" gradientUnits="userSpaceOnUse"><stop offset="0" stop-color="#0057e5"/><stop offset="1" stop-color="#0084ce"/></linearGradient><path fill="url(#SVGID_00000041979392027505662920000001185191142966959546_)" d="M137.2 109.8l-63.3 87.6-93-67.2 63.2-87.6z" clip-path="url(#SVGID_00000173141673324521593940000008495516377158554543_)"/></g><g><defs><path id="SVGID_00000149381950616545464640000006795646713605551536_" d="M55.4 24.5c0 .1-.1.2-.2.3l18.4 13.1 18.4 13 30.6 21.8c10.3 7.3 24.1 4.4 30.9-6.5l-18.6-13.3-18.6-13.2L85.9 18c-3.8-2.7-8.1-4-12.3-4-7.1.1-14 3.7-18.2 10.5"/></defs><clipPath id="SVGID_00000033332812682631022190000015239929743782804902_"><use overflow="visible" xlink:href="#SVGID_00000149381950616545464640000006795646713605551536_"/></clipPath><linearGradient id="SVGID_00000127026399759025924800000014634641933690009743_" x1="-18.979" x2="-17.979" y1="-133.53" y2="-133.53" gradientTransform="scale(-111.424) rotate(-70.054 85.322 -79.382)" gradientUnits="userSpaceOnUse"><stop offset="0" stop-color="#fff"/><stop offset="1" stop-color="#15abff"/></linearGradient><path fill="url(#SVGID_00000127026399759025924800000014634641933690009743_)" d="M174.6 21.7l-32.5 89.8-108-39.2 32.6-89.8z" clip-path="url(#SVGID_00000033332812682631022190000015239929743782804902_)"/></g><g><defs><path id="SVGID_00000107570939368200823020000005836291322447728054_" d="M42.4 39.3l23.7 26c1.1 1.5 2.3 2.9 3.7 4.1l46.2 50.8 23-1.4c6.8-10.9 4-25.7-6.3-33L102.1 64 83.8 51 65.4 37.9l-23 1.4z"/></defs><clipPath id="SVGID_00000060738096654201270220000007292607683568861614_"><use overflow="visible" xlink:href="#SVGID_00000107570939368200823020000005836291322447728054_"/></clipPath><linearGradient id="SVGID_00000056428342560333279100000016968355024903630220_" x1="-20.055" x2="-19.055" y1="-134.41" y2="-134.41" gradientTransform="scale(-315.9145) rotate(52.824 -145.022 -47.875)" gradientUnits="userSpaceOnUse"><stop offset="0" stop-color="#fff"/><stop offset="1" stop-color="#79cfff"/></linearGradient><path fill="url(#SVGID_00000056428342560333279100000016968355024903630220_)" d="M80.2 170.1L2.7 68l105.4-79.9 77.4 102.1z" clip-path="url(#SVGID_00000060738096654201270220000007292607683568861614_)"/></g><g><defs><path id="SVGID_00000122720151179349157490000018212233550025661058_" d="M42.2 39.6c-6.7 10.8-3.9 25.4 6.2 32.6l30.3 21.6L97.4 107l18.6 13.2c6.8-10.9 4-25.7-6.3-33L79.2 65.5 60.8 52.4 42.4 39.3c0 .1-.1.2-.2.3"/></defs><clipPath id="SVGID_00000055708945144556612230000014551721053078643382_"><use overflow="visible" xlink:href="#SVGID_00000122720151179349157490000018212233550025661058_"/></clipPath><linearGradient id="SVGID_00000127756858579337829260000014186552904843483300_" x1="-19.45" x2="-18.45" y1="-133.821" y2="-133.821" gradientTransform="rotate(116.865 -10937.042 -13192.063) scale(216.8326)" gradientUnits="userSpaceOnUse"><stop offset="0" stop-color="#fff"/><stop offset="1" stop-color="#79cfff"/></linearGradient><path fill="url(#SVGID_00000127756858579337829260000014186552904843483300_)" d="M155.5 55.9L105 155.5 2.9 103.8 53.4 4.1z" clip-path="url(#SVGID_00000055708945144556612230000014551721053078643382_)"/></g></svg>